<?xml version="1.0" encoding="UTF-8"?>
<svg id="Calque_2" data-name="Calque 2" xmlns="http://www.w3.org/2000/svg" viewBox="0 0 1161.85 1177.84">
  <defs>
    <style>
      .cls-1 {
        fill: #d39125;
        stroke-width: 0px;
      }
    </style>
  </defs>
  <g id="Calque_1-2" data-name="Calque 1">
    <g>
      <path class="cls-1" d="M364.77,3.11c.1,2.6-.3,3.2-2.9,4-3.7,1.1-17.9.2-29.8-1.8-11.6-2-14.1-1.7-14.5,1.8-.3,2.5-.4,2.6-3,1.2-3.7-1.9-5-1.8-8.3,1.1-5.2,4.3-30.7,11.1-39,10.3-3.7-.3-4-.2-3.5,1.8.7,2.6-1.1,4.3-8.1,7.8-5.8,2.9-6.5,4.1-2.9,5,2.4.6,49.5-14.2,60.1-18.9,3.8-1.6,5.7-2,6.9-1.3s5,.6,11.1-.1c5.1-.6,16-1.1,24.2-1.1,20.9,0,21.7-.4,16.7-8-2.8-4.3-4-5.1-3-2.3.4,1.2,0,1-1-.5-2.3-3.1-3.2-2.8-3,1Z"/>
      <path class="cls-1" d="M341.87,16.91c-16.3.8-24.5,1.8-24.5,3s9.5,2,24.1,1.9c8.3-.1,14.4.3,15.7,1,1.1.6,5.1,1.1,8.7,1.1,5.5,0,7,.4,8.3,2,1.2,1.5,4.2,2.5,10.6,3.6,5.2.9,11.3,2.7,14.6,4.4,3.2,1.6,7.9,3.4,10.5,4.1,5.9,1.5,7.4.4,5.5-4-1.4-3.4-2.3-3.7-16.9-6.5-9.6-1.7-11.1-2.7-9.3-5.6.6-1.1,1.2-2.2,1.2-2.4,0-2.5-24.4-3.9-48.5-2.6Z"/>
      <path class="cls-1" d="M301.04,13.47c-6.9,1-9.7,3.1-9.7,7.3,0,3.5-1.6,4.7-2.6,2-.3-.8-2.2-1.9-4.1-2.6-6.6-2.1-16.3.8-16.3,5,0,2.1-1.9,3.1-5.7,3.1-7,0-32.4,10.8-37,15.8-1.3,1.5-3.9,3.1-5.6,3.7-6.6,2.1-1.5,4.3,5.3,2.3,1.9-.6,9.6-3.7,17.1-6.9,7.4-3.1,16.9-6.7,21-7.9s8.5-2.9,9.7-3.7c3.1-1.9,3.7-1.2,1.5,1.6-1.1,1.3-6.5,3.9-13.8,6.5-18.2,6.5-34.4,13.6-37.9,16.6-1.7,1.5-4.8,3-7,3.3-6.2,1-12.2,6.1-6.4,5.4,1.4-.1,2.3.4,2.6,1.5.5,2.3-6.4,6.8-10.5,6.8-3.8,0-4.2,1.4-1.8,6,1.1,2,2,2.8,3.3,2.4,1.2-.4,1.2-.2-.3.7-31,19.1-42.1,27.3-64.5,47.4-12.4,11-30.2,30.2-41.1,44C42.84,242.87,15.44,329.77,20.44,417.47c.6,10.5,1.9,24.7,2.9,31.7,1.8,12.4,1.8,12.6,0,14.1-1.1.8-1.9,2.5-1.8,3.7.2,1.9.6,2.1,2.8,1.6l2.5-.6-2,2.3c-2.8,3.1-7.3,5.3-10.1,4.7-1.8-.3-2.4,0-2.4,1.3,0,2.4,2.8,9,3.8,9,.5,0,3.3-2.1,6.2-4.6,3-2.5,5.6-4.2,5.7-3.7.2.4-3,4.2-7,8.3-10,10.3-13.1,14.5-12,16.5.8,1.4,1.3,1.3,3.9-.7,4.1-3.1,15.8-13.1,16.5-14.1.3-.5.9-.1,1.3.9.5,1.2-1.6,3.9-8.2,10.3-11.5,11.3-16.6,17.6-16.8,21.2-.2,2.6,0,2.8,2,1.7,1.1-.6,7.4-6.3,13.8-12.6,9.8-9.6,11.9-11.2,12.5-9.7.5,1.5-2.1,4.6-12.3,14.5-7.2,6.9-15.1,14.1-17.6,15.9-4.8,3.5-5.5,6.4-1.7,7.6,2.8.9,8.9-3.8,21.9-16.9,6.3-6.4,11.8-11.6,12.2-11.6,2.3,0-.2,3.3-10.4,13.9-11.7,12.2-21.8,24.3-24.4,29.2-1.5,3-1.1,6.9.7,6.9.5,0,1.5-1.1,2.1-2.5.7-1.6,2.4-2.9,4.8-3.5,3.1-.8,3.7-1.5,4.7-5.3.9-3.2,2.7-5.8,7.2-10,3.3-3.1,6.5-5.7,7.2-5.7.6,0-.9,1.9-3.5,4.3-2.8,2.7-4.6,5.2-4.6,6.6,0,2.8-1.3,5.3-6,11.2-4.4,5.6-11.6,20-12.5,24.9-.8,4.5,1.5,8.1,3.8,6.2.8-.7,1.8-2.9,2.2-5,.9-4.8,6.3-15.2,13-24.7,7.6-11,21.6-27.6,22.6-26.9,2.4,1.4.1,5.2-8.7,14.7-11.4,12.1-15.4,17.2-15.4,20.1,0,1.2-.9,3.2-2,4.6-2.1,2.7-2.7,8.5-.9,9.6.6.3,2.6-.9,4.5-2.7l3.4-3.3,2.4,2.3,2.4,2.3,1.7-2.5c2-3.1,5.5-12.1,5.5-14.2,0-2.7-1.4-1.6-4.8,3.6-1.8,2.8-3.6,4.9-3.9,4.6s.3-2.9,1.2-5.6c1.8-5.5,8-14.3,14.4-20.5l4-3.9,1.5,3.7c1.5,3.6,1.5,3.9-1.8,10.4-1.8,3.7-3.7,7.8-4.1,9.2s-1.9,4.1-3.5,6c-6.3,8-11.8,24.5-11.1,33,.1.8,5.5-9.2,12-22.3s12.1-24.1,12.5-24.4c.4-.4,1.1-.1,1.6.7.5.9,0,2.4-1.5,4.4-1.3,1.7-4.7,8.4-7.5,14.9-3.9,8.9-5,12.5-4.5,14.5.6,2.6.7,2.7,2.2.7.8-1.1,3-5,4.8-8.6s4.9-9.2,6.9-12.4l3.5-5.8,1.8,3.8c1.4,3,1.5,3.9.5,4.3-5.3,1.7-11.8,12-10.6,16.6.3,1.4.9,2.6,1.4,2.6,1,0,3.3-2.9,6.3-8.1,2.3-4.1,5.3-6.7,6.4-5.6.2.2-1.3,3.9-3.3,8.3-5.9,12.6-7.5,20.8-5.8,29.3,1.3,6.3,2.8,3.3,5.9-11.4,1-4.4,3.1-10.9,4.7-14.5,2.9-6.4,3-6.4,4.2-4.1,1.2,2.1,1,3.1-1.1,8-3.4,7.5-6.5,20-5.5,21.8.6,1,2.2-1.8,5.2-8.9,5.4-12.8,5.8-13.5,7.7-10.9,1.2,1.7,1,2.4-1,5.4-3.1,4.5-5.1,11.9-4.3,15.3.6,2.4.8,2.5,2.5,1,.9-.8,3-4.3,4.6-7.6,2.5-5.2,3.1-5.9,4.1-4.5.9,1.2.7,3.1-1,8.8l-2.2,7.2-4.5.5c-5.5.6-6.2,1.9-9.5,17.9-2,9.1-2.3,12.3-1.4,14.5.5,1.5,1.6,2.6,2.2,2.4,1.5-.5,2.3-3.7,3.6-14.2,1.1-8.6,3.4-12.9,7.2-13.4,3.6-.6,4.9,1.6,2.2,3.6-2.4,1.9-6.2,10.8-6.2,14.8,0,3.5,1.7,6.4,3.9,6.4,4.7,0,10.6,11,9.9,18.7-.2,3-.7,3.8-2.3,3.8-1.4,0-2.2-1.1-3.1-4-1.4-5.1-3.8-5.3-4.2-.3-.4,5.2,3,12.8,5.8,12.8,1.1,0,2.3-.7,2.6-1.5,1.6-3.9,4.8-.9,12.8,12.1,7.2,11.8,12.1,17.6,18.7,22.5,5.1,3.6,20.8,10.5,30.9,13.5l4.5,1.4-7.2-.4c-5.7-.3-8.7-1.1-14.7-3.9-4.2-2-7.6-3.1-7.6-2.5,0,2.6,9,9.6,16.3,12.7,9.5,3.9,16.1,5,18.5,2.9,2.5-2.2,5.8-2.8,9.7-1.7,5.3,1.5,5.3,3,.1,2.3-3.5-.5-5.8-.1-9.8,1.6-4.4,1.9-6.2,2.1-11.6,1.6-8-.8-13.2-2.9-13.9-5.6-.4-1.3-1.4-2-3.1-2-3.3,0-19-15.6-22.5-22.5-3-5.8-11.1-16.3-13.3-17.2-2.6-1-2.7.4-.2,5.9,5.7,12.3,26.7,35.2,39.1,42.6,7.3,4.4,17.5,5.9,28.5,4.3,7.7-1.2,12.8-3.4,11.7-5.1-.3-.6,0-.7.7-.5.9.4,4.4-3.1,9.1-9,7.7-9.4,10.5-11.6,9.1-7.3-1.5,4.9-3.8,8.3-11.1,15.8-9.3,9.8-11.1,10.5-25.7,9.7-28.1-1.6-39.9-9.7-58.9-40.3-3.1-5-6.6-9.9-7.7-10.9-1.3-1.2-1.8-2.5-1.4-4.1.7-2.8-1.1-8.8-3.3-10.6-1.5-1.2-1.6-.8-.9,4,2.3,17.6,16.5,40.7,33.6,54.7,12.8,10.4,25.1,15.5,37.5,15.5,14.9,0,25.7-4.3,32.2-12.8,3-3.9,3.3-4.1,3.3-1.9,0,6.2-10.5,15.2-19.1,16.3-2.8.4-5.7,1.3-6.5,2.1-3.1,3.1-.8,12.7,3.2,13.7,1.5.4,3,1.9,3.8,3.7l1.3,3.1.6-2.9c.7-3.4-.6-9.7-2.3-11.8-1.2-1.5-.6-3.5,1.1-3.5.6,0,1.9,1,2.8,2.2,2,2.4,1.9,2.5,12.1-4.6,2.9-2.1,5.3-3,7.8-2.9,2.7.1,4.4-.6,6.5-2.5,2.7-2.6,2.9-2.6,4.2-.9,1.3,1.8,1.4,1.8,2.3,0,1.3-2.4,3.5-10.4,6.7-24.5,2-8.7,3-11.6,4-11.2s1.3,2.9,1.2,10.2q-.2,9.7,2.2,9.4c2.3-.2,2.4-.1,1.7,5.5-1.3,11.3-8.8,28.5-14.6,33.8-2.5,2.3-2.5,3.6,0,6.7l1.9,2.5-2.7,2.5c-5.4,5.1-13.4,10.8-15,10.8-.8,0,.6-1.4,3.2-3.1,5.2-3.5,9.4-8.5,9.3-11.2-.1-2.9-2.2-2-9,3.8-7,6-13.4,9.2-14.9,7.7-1.2-1.2-.1-2,7.6-5.2,5.8-2.4,6.1-2.7,6.4-6.3s.2-3.8-2-3.2c-3.3,1-13.1,7.1-15.2,9.4-1.3,1.4-1.6,2.8-1.2,4.6.7,2.7,5.9,6.5,8.9,6.5,2.1,0,2.2.8.2,3-1.6,1.7-1.1,5,.6,5,3.2,0,23.4-13,30.7-19.8,2.4-2.2,4.2-4.8,4.2-6,0-3.4-1.8-7.2-3.5-7.2-1.4,0-1.4-.3-.1-2.2,4.2-6.7,12.7-36.9,12.7-45.3v-5.5l3,1.5c1.6.9,2.9,2.2,2.9,3,0,1.9,2.1,3,3,1.5.4-.7,1.6-.9,2.8-.6,2.3.8,2.2,2.4-.3,13.7-1.5,6.9-1,10.9,1.6,10.9,2,0,3.9-5.1,3.9-10.5,0-6.7,1.2-10.5,3.2-10.5,1,0,2.1.6,2.4,1.4,1,2.6-3.3,16.8-9.4,31.1-3.3,7.7-5.6,14.2-5.1,14.3.5.2.6.9.3,1.4-.4.6,1.2-.8,3.4-3,6.6-6.6,8.8-4.8,3.1,2.4-8.6,10.6-9.6,15.1-3.3,13.9,1.9-.3,3.4-.3,3.4.1s-1.5,2.5-3.3,4.8c-3.9,4.8-5.8,7.8-3.6,5.8,2-1.8,3.4-1.5,1.8.5-3.8,4.7,13.1-9.7,23.7-20.2,12.8-12.8,18.4-20,18-23.1-.5-3.2-3.4-2.8-5.4.7-2.4,4.6-8.6,11.3-10,10.8-.6-.2,1.2-3.9,4.3-8.8,5-7.6,6-10,7.9-18.3.4-1.6,1.3-2.8,2.1-2.8.7,0,7.8,1.6,15.7,3.5,14.2,3.5,28.5,6.1,46.8,8.7,12.9,1.8,69.1,1.8,82,0,49.8-6.9,89.2-19.1,128.6-39.7l12.1-6.3,3.1,2.5c1.8,1.3,3,2.8,2.7,3.3s0,1.2.6,1.6c.8.4.9.3.5-.4-1.2-1.9.3-1.4,4.7,1.7,17.7,12.1,40.7,17.4,64.7,14.8l5.5-.6-5.5,1.3c-4.7,1.2-5,1.4-2.2,1.5,4.1.1,20.4,6.3,25.4,9.6,2.1,1.4,4,2.5,4.3,2.5s3.5,2.3,7,5.1c3.6,2.8,6.5,4.7,6.5,4.3,0-.5,2.7,1.8,6,5.1,3.3,3.2,5.7,6.1,5.5,6.4-.3.2,1,2.3,2.9,4.5,5.2,6.4,12.4,17.9,16.8,26.9,2.2,4.5,3.7,7.4,3.4,6.4-1.8-5.6-1.3-6.4.7-1.2,1.3,3.3,3.5,7.9,5,10.2,1.5,2.4,2.5,4.3,2.2,4.3s-1.9-2.1-3.6-4.7c-3.4-5.1-3.3-4.8.1,3.4,1.3,2.9,2.6,5,3.1,4.7,2.4-1.4.4,1.5-3.8,5.8l-4.8,4.8,169.3,169.3,169.2,169.2,6.4-6.4,6.4-6.4,3.1,2.2c1.7,1.2,3.1,2.5,3.1,2.7,0,.3-1.4-.5-3.1-1.7-2.6-1.8-3.3-1.9-4-.8-.8,1.4,1.6,2.6,6.6,3.2,1.1.2,4.3,1.4,7,2.9,31.6,16.4,69.9-.2,80.1-34.7,3.8-12.7,1.8-29.6-4.7-41.2-1.6-2.9-2.8-5.6-2.7-6,.4-1.5-2.1-7.3-3.1-7.3-1.4,0-1.4,1.7-.1,2.5,1.1.7,3.3,4.5,2.6,4.5-.3,0-1.5-1.4-2.7-3.1l-2.2-3.1,5.8-5.8,5.8-5.9-21.1-21.8c-18-18.7-222-222.5-293.4-293.2l-23.8-23.6-6.1,6c-3.4,3.3-5.9,5.3-5.7,4.5.4-1.2-1-2.1-6.1-3.9-23.8-8.2-37.7-15.8-50-27.5-5-4.7-4.2-3.6,3.3,4.6,5.4,6,9.6,10.8,9.4,10.8s-8.4-8.2-18.3-18.2c-9.9-10.1-16-16.5-13.5-14.3,12.6,11.2,12.5,11.2,6.7,4.6-6.8-7.7-14.9-23.3-17.6-34.1-1.3-5.1-2-6.7-2.2-5-.2,1.4-.4-5.2-.5-14.5,0-15.5-.3-17.8-2.7-25.8-2.9-9.4-7.2-18.6-11.9-25.5-1.6-2.3-2.6-4.7-2.2-5.4.4-.6.3-.8-.4-.4-1,.6-5.2-3.8-5.2-5.6,0-.5,1.9-4.3,4.1-8.4,3.8-6.9,4.3-7.4,5.8-5.9,2.4,2.1,3.7,1.9,5.5-.7,2.1-2.9,2-3-.8-6.1l-2.5-2.7,5-10.4c2.7-5.8,4.9-11,4.9-11.5,0-.6,1.8-2,4.1-3.1,3.1-1.6,3.8-2.4,3-3.4-.6-.7-.8-1.6-.4-1.9.3-.4-.1-.7-1-.7-2.5,0-2.1-1.5.8-3.4,2.2-1.4,2.4-2.1,1.9-5.5-.6-3.8-.5-4.1,7.7-12.3,8.6-8.5,14.6-17.6,12.2-18.5-.7-.3-1.3-1.2-1.3-2,0-1.3-.4-1.3-2.7.3-3.1,1.9-5.6,4.9-9,10.3-1.2,2-2.3,3.1-2.3,2.5,0-1.2,1.9-4,9.3-13.5,5.5-7.1,6.4-10,4.8-14.5-1.5-4.3-.8-5.5,2.9-4.8,2.5.5,3.2.1,6-3.7,4-5.4,10.3-18.7,12.5-26.3,1.2-4,1.5-7.2,1-10.8-.6-4-.4-5,.6-4.6.8.3,2,2.2,2.7,4.4,1.6,4.8.6,9.3-4.4,20.7-3.9,8.9-4.1,10.7-1.5,13.1,2.1,1.9,2.7,1.4,5.9-4.9,2.9-5.8,5.2-14.7,5.2-19.8,0-2.5-.9-7.4-2-10.9-2.4-7.6-2.5-10-.5-17.5.9-3.2,1.5-10.1,1.5-15.8,0-11.1,1.5-25.2,3.1-28.7,1.2-2.9.2,31.8-1.2,38.2-2.3,10.9-2.3,11.7.6,16.5,2,3.4,3,4.4,3.8,3.6s.8-2.2,0-5.3c-.9-3.3-.8-4.8.2-6.8,2.2-4.3,5.2-15.8,8.6-32.6l3.1-16.2-2.1-9.8c-1.2-5.5-3.1-13.9-4.1-18.8-1-4.8-2.7-9.7-3.6-10.7-1-1.1-1.9-3.3-2.1-5.1-.2-1.7-1.9-6-3.8-9.4-3.8-6.7-4.4-9.4-2-9.4,4.4,0,11.3,16.4,15.4,36.6,2.4,11.6,4.3,27.3,3.5,28.6-.3.5-.6,5.2-.6,10.5,0,7.4-.5,10.9-2,14.7-3.5,8.7-4.1,11.6-2.7,13.2,1,1.2,1,2.1-.3,4.2-2.2,3.8-5.3,13.9-8.3,26.4-2.9,12.5-3,14.4-1,16.4,1.3,1.3,1.7.9,4-3.6,1.4-2.8,3.3-8.3,4.2-12.3,1.8-8.3,3.2-11.6,3.3-7.7,0,5.1-5.2,23.7-10.1,35.9-4.2,10.2-5.2,13.8-5.3,19.1-.1,4.6-.9,8-2.5,11.3-3.6,7.4-13.6,20.4-21.5,28-6.4,6.2-6.8,6.8-4.1,6.2q2.9-.6,1.1.9c-2.6,2.1-1.8,2,4.7-.4,6-2.3,9.8-5.8,15.4-14.6l3.9-6.1,1.7,2.3c2.1,2.8,2.2,5.4.3,7.9-1.3,1.8-1.4,1.7-2.1-1.3-.8-4-2.1-4.1-2.8-.3-.8,3.8-5.7,8.6-12.6,12-7.1,3.6-9.5,6.2-8.7,9.4.4,1.9.1,2.6-1.2,2.9-1.5.4-2-.5-3-5.9-.8-4.1-.9-7-.3-8.1.5-1,3.6-4.1,6.9-7,10-8.7,25.4-30.9,22.2-32-.6-.2-1-1-1-1.8,0-4.1-4.3.1-10.1,9.9-2.3,3.8-7.3,10.2-11.1,14.1l-7,7.1-2.3-2.9c-2-2.5-2.5-2.7-4.6-1.6-3.5,1.9-3.9,3-2.2,5.7,1,1.5,2.2,2.2,3.2,1.8.9-.3-1.3,2.1-4.9,5.4-6.3,5.9-7.1,7.3-2.7,5q2.2-1.2.3,1c-2.3,2.5-2.1,2.5,3.4.6,5.3-1.9,5.5-1.9,3.9.1-.7.8-4,2.8-7.3,4.4-9,4.1-10.1,5.2-8.5,7.8.8,1.2,2.2,2.2,3.1,2.2,3.5,0,1.7,1.8-4.9,4.9l-6.8,3.2,5-.5c4.8-.5,4.8-.3-.4,1.6-1.3.5-2.2,1.1-1.9,1.3.8.8,23.9-5.2,36.3-9.5,12.2-4.2,23.5-9.6,23.5-11.1,0-.5-.4-.9-1-.9-.5,0-1-.7-1-1.5,0-2.4-3.6-1.8-8.2,1.4-4.3,2.9-9.8,4.8-9.8,3.4,0-.5,3.5-2.7,7.8-5.1,7.9-4.3,13-8.5,15.8-12.8,2.1-3.1,4.2-3,10.4.3,4.3,2.4,5.2,2.6,6,1.3.5-.9.5-1.9-.1-2.7-1.4-1.6-.2-5.4,6.7-21.1,6.4-14.5,12.4-31.6,14.9-42.3,1.9-8.2,1.5-14.9-1-14.9-.8,0-1.5.3-1.5.7,0,.5-.9,1.9-1.9,3.2q-1.8,2.3-.5-4c1.4-6.7,2.9-20.4,4.3-39.9l.8-11.5.2,14.5c.2,18,1.4,28.4,3.4,30.4,1.3,1.4,1.6,1.2,2.2-1.2.3-1.5.9-10.6,1.2-20.2.6-18-.7-36.3-2.9-40.3-1.1-2.1-1.2-2.1-2.3,1.3-.8,2.5-1.9,3.6-3.6,3.9l-2.4.3,2-2.2c1.6-1.8,2-3.6,2-9.9,0-4.6-.6-8.6-1.5-10.1-1.3-2.4-1.4-2-3.1,7.2-2,11.4-2.4,12.2-4.9,10.8-3-1.6-4.9-1.2-5.5,1.2-.5,2.1-2.3,15.4-4.4,32-.8,7-3.1,11.8-5.7,11.8-1.1,0-1.2-.5-.6-1.8.5-.9,1.9-6.7,3.1-12.7,6.4-33.4,6.7-45.1,1.5-65.4-4.5-17.5-4-20.2,3.6-21.2,1.8-.3,2.5.1,2.8,1.6.2,1.1,1.4,3,2.5,4.3,1.5,1.6,2.1,3.3,1.8,5.5-.5,5.2-1.2,5.2-4.3-.3-2.2-3.9-3.3-4.9-4.1-4.1-1.7,1.7,1.5,16.1,4.8,21.7,1.5,2.5,3.8,5,5.2,5.7,3.6,1.6,5.3-.9,8.2-12.6,2.4-9.6,2.4-9.8.7-15.9-2.4-8.6-9.6-23.6-13.5-28-1.8-2.1-4.8-4.3-6.7-5-4.1-1.4-4.2-2.2-.9-4.4,8.4-5.5,16.1,7.7,29.5,50.1,3.7,11.9,7.3,19.5,9.3,19.5,1.2,0,.8-6.1-.7-12-.8-3-1.3-5.6-1.1-5.8.5-.5,6.1,13.7,8.4,21.1,1.1,3.8,3.4,13.5,5.1,21.5,1.7,8.1,3.6,16.3,4.2,18.2,1.3,4.1,4.4,8.4,5.2,7.2.2-.4-.7-7.8-2-16.3-2.1-12.5-2.3-16-1.4-18.4,1.1-2.8,1.2-2.9,2.5-1.2.7,1.1,1.6,3.8,2,6,1.6,10.4,4.8,21.6,7.1,25.2l2.5,4-.5-7.3c-.8-9.4-3.5-22.9-5.3-26.6-.8-1.5-1.7-6.2-2-10.2-.3-4.1-1.2-8.2-1.9-9.2-1.3-1.6-1.5-1.6-2.9.2-.9,1.2-1.5,4.1-1.5,7.3,0,2.9-.4,5.3-1,5.3-1.3,0-4.3-6.1-7-14.5-4.1-12.6-7.4-17.2-13.4-19.2-2.4-.7-3.1-1.6-3.4-4.4-.2-1.9-1.5-6.7-2.8-10.6-3.1-9-4.7-17.8-2.9-16.3.6.5,2.4,4.2,4,8.2,4.6,11.7,7.3,15.4,13.7,18.7,3,1.5,3.4,2.4,5.8,12.2s4.8,14.7,6.4,13.2c1.2-1.2.5-5.4-2.8-17-6.3-21.8-17.7-48-26.1-59.8-8.9-12.6-36.2-36.5-41.6-36.5-4.9,0,.1,5.6,12,13.4,10.5,6.9,20.8,17.1,24.2,23.9,1.2,2.3,3.5,5.7,5.2,7.6,5,5.8,16.4,32.6,15.5,36.7-.2,1.2-3.8-4.8-9.1-15.6-4.9-9.6-10.1-18.9-11.6-20.5-1.6-1.7-3.8-4.8-4.9-7-2.9-5.6-18.2-19.8-19.7-18.3-.3.2,3.2,4.9,7.7,10.4,12.6,15.4,19.2,26.4,15.9,26.4-.4,0-2-1.8-3.5-4.1-6.8-10.2-30.6-33.9-34.1-33.9-.7,0-1.7.9-2,2.1-.6,1.7-1.2,1.9-3.3,1.4-4.4-1-7.2-3.4-7.2-5.9,0-3.3-3.2-6.9-8-9.1-2.8-1.3-3.7-2.2-3-2.9.5-.5,1-2.5,1-4.3,0-1.9.7-5,1.5-7,1.4-3.3,1.8-3.5,4.9-3,4.8.8,23.3,8.2,29.1,11.7,2.8,1.7,7.2,4.6,9.9,6.5,4.4,3.2,5.3,3.5,9.7,2.9,4.7-.6,4.9-.6,10.2,4.5,3,2.8,5.9,5.1,6.5,5.1,1.8,0,1.5-7.6-.4-11.3-3.1-5.9-7.6-10.8-12.9-13.8-2.8-1.6-5.7-4-6.3-5.3s-2.6-3-4.6-3.7c-1.9-.7-3.9-2.3-4.5-3.5-.8-1.8-3.5-3.1-12.8-6-6.5-2-12.2-4-12.7-4.4-1.6-1.5,3.1-3.1,6-2,2.1.8,3.2.7,5.1-.6,2.4-1.5,2.6-1.5,5.7,1.4,1.7,1.6,7.2,5.7,12.2,9,25.3,16.8,49.6,42,63,65.2,2.4,4.1,5.7,8.8,7.3,10.4,2.8,2.7,3.2,2.8,6.1,1.6,4.8-2,6-3.6,5.3-7.3-.7-4.2-4.2-12.5-6.5-15.9-1.1-1.6-1.6-3.2-1.3-3.8.8-1.4,4.8-1.3,6.3.2,1.9,1.9,2.5.2,1.3-3.5-2.3-6.9-19-28.1-20.7-26.4-.9.9,1.3,4.8,7.8,13.8,2.6,3.6,4.8,7.6,4.8,8.8,0,2-.1,2.1-2.7.7-2.6-1.3-16.8-16.2-17.1-17.9-.7-3.5-5.3-8.2-18.9-18.9-14.1-11.2-29.1-21.8-30.7-21.8-1.8,0,3.7,5.8,12.9,13.4,24.8,20.8,60.5,62.2,60.5,70.1,0,7-3.9,3.2-16.7-16.3-8.8-13.5-13.5-19.6-19.7-25.6-22.6-21.9-65.6-51.6-74.6-51.6-5.8,0-2.3,4,6.1,6.9,8,2.9,3,2.5-11.1-.9-6.9-1.6-15.6-3.3-19.3-3.6-5.9-.6-6.9-.5-8.2,1.2-1.2,1.7-2.6,1.9-11.7,1.7-7.2-.1-12.1-.7-16.2-2.1l-5.8-1.9-6.7,3.3c-3.6,1.8-7.5,3.5-8.5,3.6-3.2.5-2.9-1.9.4-2.6,4.2-.8,18.2-6.4,19.7-7.9.7-.7,1-2.2.6-3.5-.5-2.1-1-2.3-4.2-1.8-12,1.9-11.9,1.9-13-.2-1.6-3-3.5-3.3-10.6-1.8-4.3.9-6.7,1-7.1.4-.9-1.5,1.1-2.4,9.7-4.8,8.9-2.4,10.9-2.5,10.9-.6,0,.7.9,2.5,2,3.8,1.9,2.5,2,2.6,8.2,1.2,11.7-2.5,23.8-1.1,13.3,1.5-4.3,1.1-6.2,3.1-2.9,3.1.8,0,1.2.4.9,1-1,1.6,5.2,1.2,8.5-.5,1.7-.9,3-2.2,3-3.1,0-.8,1.6-2.4,3.7-3.6,2-1.2,3.1-2.4,2.5-2.6-.7-.2-1.2-1-1.2-1.7,0-1.9-4.2-2.1-18.4-1.3-6.6.4-12.2.5-12.5.3-1.3-1.4,2-2,10.2-2.1,5.1,0,12.2-.4,15.9-.8,5.5-.7,7.1-.5,9.6,1,2.9,1.6,3.1,1.6,4.7,0,1-1,2.4-1.4,3.4-1.1,4,1.6,7.7,1.7,9,.1.9-1.1,1-1.6.2-1.6-.6,0-1.1-.7-1.1-1.5s-.5-1.5-1.1-1.5c-.7,0-.9-1-.5-2.5.4-1.7,0-3.1-1.4-4.5l-2-2h3.3c3.9,0,5.3.9,5.8,3.4.5,2.3,4.8,5.6,7.6,5.9,2.5.1,2,1.7-.5,1.7-.9,0-2.3.4-3.1.9-2.7,1.7,2.4,5.1,21.8,14.1,10.6,4.9,24,11.8,29.8,15.2,12.1,7.3,29.6,20.2,39.9,29.4,4,3.5,7.5,6.4,7.8,6.4,1.7,0,.2-4.3-2.4-7.3-1.6-1.9-3-3.7-3-4.1,0-1.4,6.1-.4,7.8,1.3,9.4,10,11.7,12.1,13.3,12.1,3,0,2.2-2-2.3-6.3-2.4-2.1-8.1-8.5-12.8-14-9.5-11.4-21.8-22.4-33-29.7-4.1-2.7-8.4-5.6-9.5-6.5-1.9-1.4-1.9-1.5.5-.6,1.4.5,4.8,1.4,7.5,2,7.8,1.9,13.4,6.2,28.1,21.5,12.7,13.3,22.9,22.6,24.7,22.6,1.5,0-3.6-7.9-10.5-16.2-11.1-13.4-45.7-43.8-49.9-43.8-.3,0-.4,1.3-.1,3,.7,4.9-2.2,3.7-3.6-1.4-1.3-5-3.9-8.3-5.5-6.7-.5.5-1.4,1.9-2.1,3.2-1.4,2.9-2.7,3.3-5,1.6-1.5-1.1-1.7-1.8-.8-3.2,1.4-2.5-1.2-6.3-5.5-8.1-3.6-1.6-14.9-1.9-15.7-.5-.3.5.1,1.5,1,2.2.8.7,2.1,2.7,2.8,4.4,1.5,3.5,5.9,6.6,14.5,10.1,3.6,1.5,4.8,2.4,3.3,2.4-3.7,0-14.3-3.9-19.6-7.3-4.3-2.7-5.2-2.9-7.8-1.9-2.9,1.1-8.8-.1-8.8-1.7,0-.4,1.7-2.3,3.8-4.3,3.2-3.2,9.2-6.5,16.7-9.3,1.3-.5,1.5-.9.8-1.2s-1.3-1.1-1.3-1.8c0-1.3-1.9-2-9.9-3.8-3.5-.8-6.8.8-7.5,3.8-.9,3.6-3.6,2.9-5-1.5-1.3-4.2-6.2-7-12.3-7-3.3,0-4.3.4-4.8,2.1-.5,1.6-1.2,1.9-2.8,1.4-13.6-4.3-31.1-6.2-39.7-4.4-3,.7-7.3,1.3-9.5,1.4-5.8.3-6.2.4-4.2,1.6.9.6,1.5,1.4,1.2,1.8-.7,1.2,5.4,1.9,21.5,2.6,7.4.4,17.7,1.3,22.9,2.2,5.2.8,10.7,1.2,12.2.9,3.8-.7,3.7.8,0,2.4-2.4,1-5.5.9-15.7-.5-18-2.3-38.4-3.1-41.2-1.6-1.7.9-3.3.8-7.6-.4-4.5-1.3-5.9-1.4-7.8-.4-1.9,1.1-2,1.4-.6,1.7,1.1.2,1.5.9,1.1,1.9-.4,1.1-.2,1.4.5.9.7-.4,1.2-.3,1.2.2,0,2.5-11.9,3.1-14.3.7-1.3-1.2-1.6-1.2-2.1.8-.9,3.4-.7,7.7.3,7.7.5,0,1.1.6,1.3,1.4.2,1.1,3.1.6,13.8-2.4,15.1-4.3,26.4-6.1,24.2-3.9-.7.8-3.6,1.4-6.8,1.4-4.3.1-6,.6-7,2-1,1.3-2.9,1.9-6.6,2.1-2.9.1-8.2,1.2-11.8,2.3s-7,2.1-7.5,2.1c-.6,0-5.7-5.1-11.2-11.4-29.4-33-66.1-60.5-108.8-81.6-38.6-19-73-29.4-116.1-34.9-10.1-1.3-16.5-2.6-19.2-4-8.7-4.4-47.7-14.9-58.7-15.8-5.3-.4-5.8-.3-4.2,1,1.7,1.5,2.4,4.7.9,4.7-.5,0-1.4-1.1-2-2.5-1.2-2.6-8-6.1-9.3-4.8-.4.5-.9,2.4-1.1,4.3-.2,2.7-.7,3.5-2.3,3.5-1.4,0-2.1-.8-2.3-2.6-.7-5.9-14.9-5.8-21.5.1l-3.1,2.8,3.2.7c1.8.3,3,1,2.7,1.5-1.3,2,3.3,3.3,13.8,3.9l11.2.6-7.8,1.4c-4.6.8-10.5,1.2-14.6.8-6.4-.5-7-.4-9,1.9-2.5,2.9-7.1,3.3-7.1.6,0-3.2,5.1-12.7,9-16.7,3.9-3.9,3.9-4,1.7-5-1.3-.6-4.2-.8-7-.3ZM377.84,29.17c3.9,1.1,9,2.8,11.5,3.9l4.5,1.9-8-.4c-4.4-.3-11.5-1.1-15.9-1.9-4.3-.8-10.4-1.4-13.5-1.5h-5.6l4-1.9c5.3-2.5,14.3-2.5,23-.1ZM287.54,40.47c1.2,1.8,2.4,2.2,6.6,2.1,6.3-.1,5.9,1.1-1,3.2-6.7,2-7.8,1.9-7.8-.4,0-1.4-1-2.2-3.2-2.6l-3.2-.7,2.3-1.9c3-2.5,4.5-2.4,6.3.3ZM317.04,40.87c-.3.3-1.2.4-1.9.1-.8-.3-.5-.6.6-.6,1.1-.1,1.7.2,1.3.5ZM264.34,45.27c-3.2,2.5-22.5,11-24.8,11-2.2-.1,6-4.5,17.3-9.1,10.5-4.4,10.8-4.5,7.5-1.9ZM275.84,50.17c-1.3,1.2-12.7,5.3-13.2,4.7-.2-.2,2.4-1.5,5.9-2.9,6.9-2.7,8.8-3.2,7.3-1.8ZM234.34,60.27c-.6,1.1-3.1,3-5.5,4.1-2.5,1.2-4.6,2.6-4.6,3.3-.1.6-.2,1.6-.3,2.3,0,.6-2.8,2.5-6.1,4.2l-6,3.1,5.5-5c5-4.6,16.9-14,17.7-14,.2,0-.1.9-.7,2ZM733.34,154.17l5.5.7-4.5.7c-4.8.7-25.6-.5-26.7-1.6-.8-.9,18.4-.7,25.7.2ZM701.54,165.47c-1.7,1.7-31.5,8.9-32.5,7.8-.5-.4,1.7-1.6,5-2.5,10.6-3.2,27.8-7.3,28.2-6.9.3.2-.1,1-.7,1.6ZM744.44,164.57c-1.3,1.3-18.7,2.1-27.7,1.2-5.7-.5-7.3-1-5.9-1.6,2.6-1.1,34.7-.7,33.6.4ZM797.84,179.47c28,11.9,44.4,21.7,55.5,33.2,2.8,3,3.2,4,2.4,5.4-2,3.2-4.7,2.5-8.7-2.3-6.6-7.9-22.2-17.9-51.9-33.4-8.7-4.5-15.8-8.5-15.8-8.8,0-1.2,7.1,1,18.5,5.9ZM727.34,184.27c0,.5-.5,1-1.1,1-.5,0-.7-.5-.4-1,.3-.6.8-1,1.1-1,.2,0,.4.4.4,1ZM690.34,186.67c0,.3-.4.8-1,1.1-.5.3-1,.1-1-.4,0-.6.5-1.1,1-1.1.6,0,1,.2,1,.4ZM684.04,189.87c-.3.3-1.2.4-1.9.1-.8-.3-.5-.6.6-.6,1.1-.1,1.7.2,1.3.5ZM765.34,201.87c5.3,2.2,3.9,3.9-2.4,3-4.6-.7-6.2-1.8-5.1-3.6.9-1.4,2.8-1.2,7.5.6ZM740.14,203.87c1.3.4,2.1,1.1,1.9,1.7-.2.7-5.7,1.1-15.3,1.2-8.2.1-18.3.7-22.5,1.5-7.5,1.3-10.9,1-10.9-1,0-.5,1.2-1,2.8-1.1,1.5,0,7.9-.6,14.2-1.4,12.7-1.4,26.2-1.8,29.8-.9ZM755.74,208.87c.8,3.2,4.6,8.4,6.1,8.4.6,0,2.1-1.1,3.3-2.5s3-2.5,3.9-2.5c3.6,0,11.8,3.1,19.1,7.1,5,2.8,8.3,4,10.1,3.7,2.4-.3,3.1.2,5.4,4.4,1.5,2.6,2.4,4.8,1.9,4.8-.4,0-4.3-2.1-8.7-4.6-16.8-9.6-20.6-10.9-23.3-8.2-.9.9-1.8.7-4.1-1-2.5-1.8-3.1-1.9-4.1-.7-.9,1-3.2,1.5-7.6,1.5-3.5,0-6.4.4-6.4.9,0,1.3,2.9,4.1,4.1,4.1.6,0,.7.4.4,1-.3.5-1.9,1-3.6,1-2.9,0-4,1.4-1.6,2.3,4.4,1.6-6.7,3.4-25,4.1l-13.8.6,5.5-2,5.5-2-5,.5c-3.5.3-4.4.2-3-.4,1.1-.5,3-1,4.3-1,1.2-.1,2.2-.4,2.2-.9,0-.4-3.9-.7-8.7-.7-18.7,0-6.5-4.2,15.2-5.2,6.6-.3,12.7-.9,13.5-1.4,1.2-.7,1.1-.8-.5-.9-1.6,0-1.7-.2-.5-1,.8-.5,1.1-1.3.6-1.7-1-1.1-18.3-.7-30.9.7-6.2.7-10.3.8-10.9.2-2.7-2.7,29.6-5.6,43.6-3.9l6.9.9-.7-2.4c-1.3-4.3-1.1-5.2,1.4-6.4,2.9-1.5,4.5-.5,5.4,3.2ZM858.34,221.67c0,.2-.7.6-1.5,1-.8.3-1.5.1-1.5-.4,0-.6.7-1,1.5-1s1.5.2,1.5.4ZM788.04,227.87c-.7.7-3.7-.7-3.7-1.7,0-.6.9-.5,2.1.1,1.1.7,1.9,1.4,1.6,1.6ZM735.24,240.37c-4.9,1.1-22.2,2.8-23.1,2.2-.5-.2-.8-.8-.8-1.3,0-.8,5.6-1.2,23.5-1.7l4-.1-3.6.9ZM749.84,245.87c.9.4,2.7,2.9,4,5.6,1.9,4,2.2,5.3,1.3,6.8-1.5,2.3,1.3,7,4.3,7s3.4-2.5,1-5.9c-2.3-3.2-2.6-5.3-1.1-8.2,1.2-2.2,3.5-2.6,2.6-.4-.8,2.3,3.9,7.1,11.3,11.4,6.9,4.1,18.6,15.1,16.1,15.1-.8,0-3.9-1.8-6.7-4-6.4-4.8-12.5-8-15.3-8-3.5,0-1,2.8,9.1,10.5,5.5,4.1,11.7,10,15.2,14.3,5.7,7,6,7.2,7.8,5.6,2.8-2.5,4.4-.6,10.5,12.1,7.1,14.9,8.4,22.6,2.8,16.4-1-1.2-1.8-2.9-1.6-3.9.7-4.5-9.3-19.1-14.4-21.1-1.3-.4-3.6-2.7-5.1-5-1.6-2.2-4-5.5-5.4-7.2l-2.7-3.1-3.6,1.9c-4.5,2.4-6.9,1.7-22.1-7-12.9-7.4-17.2-8.8-26.8-8.3-4.9.2-7.1-.1-7.4-1-.4-.9,1.9-1.2,9-1.2,11.2,0,19.8,2.3,27.1,7.2,10.6,7.2,15.2,9.8,16.5,9.6,5.2-1-1.4-8.3-13-14.3-14.9-7.7-21.9-9.8-33.1-9.9-9.9-.1-13.2-1-8.3-2.2,2.9-.7,21.1.1,25.8,1.2,2.3.5,2.7.3,2.7-1.5,0-2.4-3.4-9.6-5-10.6-3-1.8.6-3.3,4.5-1.9ZM737.34,249.77l5.5,1.5-8.5-.4c-4.7-.3-10.6-.1-13.2.3-3.6.6-4.8.5-4.8-.5,0-2.4,13.1-3,21-.9ZM796.94,275.77c-2,1.5-3.6,1.9-3.6,1,0-.5,3.8-2.3,5-2.4.3,0-.4.6-1.4,1.4ZM744.84,280.47c8.3,3.2,14.7,7.4,20.1,13,7,7.3,11.6,14,10.5,15.1-1.3,1.3-5.4-2-12.6-10.3-9.8-11.2-13.1-13.1-28-15.4-5.1-.9-7.1-1.6-7.3-2.8-.6-3.2,8.4-3,17.3.4ZM376.04,283.47c-.3.7-.5.2-.5-1.2s.2-1.9.5-1.3c.2.7.2,1.9,0,2.5ZM639.64,280.97c-.7.2-2.1.2-3,0-1-.3-.4-.5,1.2-.5,1.7,0,2.4.2,1.8.5ZM376.04,288.97c-.3,1-.5.4-.5-1.2,0-1.7.2-2.4.5-1.8.2.7.2,2.1,0,3ZM469.04,287.47c-.3.8-.6.5-.6-.6-.1-1.1.2-1.7.5-1.3.3.3.4,1.2.1,1.9ZM738.74,290.37c17.4,3.2,24.4,11,30.1,33.5,3.4,13.2,3.9,21.9,2.5,43.9-1.4,23.5-3.3,38-6,46.8-1.4,4.4-1.9,7.9-1.5,10.1,1.1,5.6-3.6,21.1-9.6,31.4-1.7,3-3.3,5.1-3.7,4.8-.3-.4.5-2,1.7-3.7,1.7-2.2,2.1-3.8,1.6-6-.8-3.7-3.7-3.9-6.2-.4-1,1.4-2.6,3.6-3.6,4.8l-1.8,2.2.6-2.9c.3-1.7,1.9-4.3,3.5-6,3.1-3.1,4.6-6.6,6.6-15.6.6-3,1.2-4.8,1.3-3.9s1,2.4,2,3.3c1.9,1.7,2,1.7,3-2.1.5-2.1,2.3-9,3.9-15.3,4.1-15.6,4.7-20,3.1-24.4-1.7-4.6-3.6-4.6-5.6.1-2.3,5.3-2.8,2.2-1.4-8.7,2.8-22.3,2.2-37-1.9-45.5-2.1-4.3-2.1-4.7-.5-7.1,2.5-3.9,4.8-2.7,5.8,3.1.8,4.7,1,29.1.5,41.5-.3,4.5.1,6.1,1.9,8.4,2.1,2.6,2.3,2.7,3,1,.5-1.1.8-12.3.8-24.9v-23l-4.4-11.5c-8.2-21.7-11.5-26.4-21.6-30.4-3.6-1.4-7.6-2.6-9-2.6s-2.5-.5-2.5-1c0-1.2.3-1.2,7.4.1ZM883.84,290.27c-.3.5-1.1,1-1.6,1-.6,0-.7-.5-.4-1,.3-.6,1.1-1,1.6-1,.6,0,.7.4.4,1ZM430.04,293.97c-.3,1-.5.4-.5-1.2,0-1.7.2-2.4.5-1.8.2.7.2,2.1,0,3ZM492.14,293.77c-.3.3-.9-.2-1.2-1.2-.6-1.4-.5-1.5.5-.6.7.7,1,1.5.7,1.8ZM787.34,296.17c0,2.3,4.9,6.8,8.2,7.6s5.5,3.2,4.2,4.5c-1.5,1.5-7.7-.7-10.7-3.7-3-3.2-6.1-9.9-5.1-11.4.8-1.4,3.4.9,3.4,3ZM477.84,320.27c.4,1.9,1.4,4.2,2.1,5.1,1.3,1.5,1.1,1.6-2.3,1.6h-3.8l1-16.6,1-16.6.6,11.5c.3,6.3.9,13.1,1.4,15ZM397.44,299.37c-.5,1.3-1,1.9-1,1.2-.1-1.5,1-4.5,1.5-4,.3.2,0,1.5-.5,2.8ZM642.14,300.77c-.6,1.4-1.3,2.3-1.5,2.1-.5-.5,1.5-4.6,2.2-4.6.3,0-.1,1.1-.7,2.5ZM541.94,300.27c22.7,1.8,45,6.5,66.4,13.9,6.5,2.2,11.7,3.5,11.9,3,.2-.6,1.4-2.2,2.8-3.7l2.4-2.7-1.9,3c-1.1,1.6-2.3,4.1-2.7,5.4-.6,2-.4,2.3,1,1.7,1.2-.4,1.6-.2,1.2.8-.9,2.2.5,2.8,2.4,1,1.3-1.2,2.2-1.3,3.7-.5,1.1.6,2.2.7,2.6.4.3-.3.6,1.7.6,4.5s.5,5.2,1,5.2c.6,0,1,.8,1,1.7.1,1.4.7,1.1,2.9-1.3,1.6-1.7,3.1-3.8,3.4-4.5.3-1.1.7-1.1,1.8-.2,1,1,1,2,.1,5-1.3,4.3-.8,5.4,1.3,2.7,1.4-1.8,1.4-1.7.5,1-1.6,4.4-.5,4.3,2.7-.2,2-2.9,3.5-4,5.1-3.9,1.2.1,2.2.2,2.2.3s-.7,1.8-1.5,3.7c-2,4.9-1.9,8.7.5,11.7,2.6,3.3,4.7,2.1,8.1-4.8,1.9-4,2.8-4.9,3.7-4s1.2.9,1.2-.2c0-.7.2-1.1.5-.8s-.9,4.9-2.5,10.4c-4.5,14.6-4.8,17.3-1.6,20.6,4.6,5.1,6.9,3.3,8.1-6.2.4-3,1.4-8.3,2.2-11.7,1.4-5.6,1.7-6.1,3.4-5.2,1.5.8,1.9,2.1,1.9,6.4,0,3,.5,5.5,1,5.5.6,0,1,.7,1,1.6s.6,1.4,1.3,1.2c1-.4,1.9-2.3,3.3-7.6.6-2.1,2.4-.3,2.4,2.4,0,3.1,2.7,7.3,5.4,8.4q2.1.9-.1.9c-1.2.1-2.4-.3-2.8-.9-2.5-4-6.9,7.7-8.6,22.9-1.9,17,2.5,40.6,11.1,58.9,2.1,4.5,3.6,8.1,3.2,7.8-.4-.2-2.3-3.7-4.2-7.6-3-6.1-3.6-6.8-4-4.8-.4,1.4.4,4.7,2.2,8.5,3.9,8.7,3.5,9.2-.7.9-1.9-3.8-3.2-7.4-2.8-8,.3-.6.3-.8-.2-.4-.4.4-1.4.3-2.1-.2-.9-.8-1.8-.3-3.3,1.6-2.2,2.8-2.9,7.4-1.1,7.4.6,0,1,.6,1,1.4s1.1,1.7,2.5,2c1.4.4,2.5,1.2,2.5,1.9,0,.8,1.1,3.5,2.4,6,1.3,2.6,1.8,4.3,1.1,3.7s-1.9-2.4-2.6-4.1c-1-2.5-1.4-2.8-2.1-1.5-1.1,2,2.2,8.7,5.8,11.5,1.5,1.2,2.2,2.1,1.7,2.1-1.6,0-5.9-5.3-8.9-11-2.8-5.3-7.4-10.4-13-14.6-2.8-2.1-2.8-2.3-3.8-17.5-1.2-18.7-1.2-22.7-.1-40,.7-12.2.6-13.8-1-16.2-1-1.5-2.2-2.6-2.8-2.4-3.7,1.2-5.8,25.8-3.8,45.7,1.9,19,2.3,28.4,1.2,30-.5.8-1.2,1.2-1.6.9-.3-.3-1.5-6.9-2.6-14.5-1.5-10-2.2-19.3-2.3-32.9-.1-19.9-.7-22.8-4.6-23.8-1.6-.4-2.3.1-3.1,1.9-1.3,3.6-1,30.4.5,40.4.8,5.7.9,9.2.3,10.7-.8,1.7-.4,4.2,1.6,10,1.4,4.3,2.9,9.5,3.3,11.6.6,3.6.5,3.9-2.5,5-4.1,1.5-4.1,4.7,0,11.2l3.1,4.9,2.4-2.9c1.3-1.7,3.4-5.4,4.6-8.3,1.2-2.8,2.5-5.2,3-5.2.4,0,3.1,4.6,5.9,10.2s6.1,11.7,7.3,13.7c2.4,3.8,2.8,8.8.6,8.3-.7-.1,1,1.9,3.7,4.5s3.5,3.6,1.9,2.2c-4.8-4-7.9-5.9-9.8-5.9-2.2,0-2.3,2.8-.2,5.8.8,1.2,1.2,2.7.8,3.4-.4.6-.3.8.3.5.6-.4,2.5,1.3,4.3,3.6l3.3,4.2-3.5-3.3c-2.8-2.7-3.7-3-4.1-1.8-.4,1,.6,2.5,3.1,4.3,7.5,5.5,6.5,5.5-1.6.1-2.3-1.6-4-3.3-3.7-3.9.3-.5,0-.7-.7-.4-1.4.5-2.9-1.6-15.3-21.5-9.7-15.4-13.7-24-16.4-35.4-2.3-9.1-4.8-15.2-7.6-18-2.5-2.4-3.5-1-3.5,4.7,0,7,3.1,17.9,8.5,29.7,4.8,10.3,5.4,13,3,13-.8,0-3.8-4.9-7.5-12.3-3.3-6.7-6.9-13.3-7.9-14.7-1.8-2.2-2-2.3-2.6-.7-1.1,2.6,1.8,10.3,11.6,31,9.2,19.5,12.9,25.4,18,28.4,1.6.9,3.4,3.2,4,5,1.3,3.9,6.4,9.7,7.9,8.8.5-.3,1-1.6,1-2.8,0-2.4-5.9-13.1-11.4-20.6-3.1-4.2-7.6-12.3-7.6-13.6,0-.3.7-.5,1.5-.5,2.6,0,14.3,16.2,19.1,26.5,1.3,2.7,2.4,6.4,2.4,8,0,1.7.7,4.2,1.6,5.5l1.6,2.5-2.1-2.4c-1.2-1.3-2.2-3.7-2.2-5.5-.1-2.4-.3-1.9-1,1.8-.4,2.7-1.2,5.3-1.8,5.9-.7.7-.5,2,.5,4.1.8,1.7.9,2.2.2,1.1-2.5-3.9-8.6-9.5-10.4-9.5-1.3-.1-2.7-1.7-4.1-4.8-1.2-2.6-4.8-8.1-7.9-12.2-3-4.1-7.2-10.7-9.1-14.5-6.1-12-13.4-21.8-15-20.1-1.8,1.8,5.6,18.9,11.4,26.6,2.5,3.3,3.3,5.2,2.9,7-.6,3.2,2,6.5,5.6,7.4,1.6.3,2.9,1.5,3.3,2.9,1.2,3.6,5.5,8.7,7.5,8.7,1,0,2.2,1,2.6,2.2s3.2,4.9,6.3,8.2,4.4,5.3,3,4.4q-2.5-1.6-4.9,3.4c-1.3,2.8-2.9,5.6-3.5,6.2s-3.1,4.5-5.7,8.6-5.4,8.4-6.2,9.5c-.9,1.1-4.7,6.2-8.5,11.3-9.1,12.2-12.2,16.1-21.2,26.2-12.4,13.8-17.2,18.5-29.8,29-3,2.5-6.3,5.3-7.3,6.2-1,1-2.2,1.8-2.8,1.8s-1,.4-1,.8-1.2,1.5-2.7,2.4c-1.6.9-3.8,2.5-5,3.5-3.2,2.7-5.8,4.7-7.6,5.8-.8.5-5.5,3.7-10.4,7.1-14.4,10-31.2,19.4-41.8,23.4-1.1.5-4,1.7-6.5,2.8-4.8,2.1-20.4,7.1-30.5,9.7-30,7.9-65.9,11.5-95.3,9.5-24.3-1.6-34.4-3.1-61.2-9-1.9-.4-4.7-1.2-6.2-1.8q-2.7-1.1-2.3,2.1c.4,2.8.4,2.9-.4.7-.5-1.4-1.8-4.7-3-7.5-1.2-2.7-2.1-6.3-2-8,.4-5.8.1-6.7-2.2-6-2.5.8-6-2.2-9.6-8.2-1.4-2.4-4.3-5.7-6.5-7.5-2.3-1.7-7-7.7-10.6-13.2-7.7-12.1-9.9-14.6-12.7-14.6-1.6,0-2.3-1-3.3-4.6-2.1-7.9-11.2-15.1-11.2-8.9,0,3,2.6,8.5,4,8.5.5,0,1.4.9,2.1,2.1,2.1,4-2.1.5-16.1-13.5-7.5-7.5-14.2-13.6-14.8-13.6-4.3,0,2.3,11.3,15.9,27.3,12.8,14.9,22.8,30.2,29.1,44.2,4.6,10.4,5.7,14.6,1.8,7.2-3.6-6.9-4.7-7.5-2-1.1,3.8,8.8,1.8,5.8-5.8-9.1-8.9-17.1-16.1-29.2-19.3-32.1l-2.2-1.9.7,4.9c.7,4.5.6,5.1-1.9,7l-2.7,2.2,3.5,12.4c2,6.8,3.4,12.6,3.2,12.8s-1.3-2.9-2.5-6.9c-1.7-5.4-2.4-6.9-3.1-5.7-.6,1-.3,2.9.7,5.3.8,2,1.4,3.9,1.2,4.1-.2.1-2.1-3.5-4.1-8.2l-3.8-8.5,2.5-3c4.8-5.7,3.1-16.5-4-25.9-5-6.6-5.4-4.8-1.5,7.5,4.1,12.6,4,13.5-.4,13.5-2.3,0-3.8.6-4.2,1.6-.5,1.4.4,6.6,2.1,11.9.3,1.1-.3.2-1.4-2s-2-5-2-6.3-.4-2-1-1.7-1,.1-1-.6-.2-1-.5-.7.2,2.4,1,4.8c3.2,9.2,1.2,5.9-2.9-4.6-5.5-14.3-11-23.1-23.5-37.3-5.6-6.2-10.1-12.2-10.1-13.1,0-2,5.7-8,7.6-8,.7,0,1.6.9,1.9,2,.4,1.1,1.7,2.8,3.1,3.6,6,4,7.8-3.9,2.1-9.3-5-4.8-14.8-9.3-20.3-9.3-3.4,0-6.1-.9-10-3.1-3-1.7-5.4-3.3-5.4-3.5,0-.3,2.4.8,5.4,2.5,6.3,3.6,7.6,3.8,7.6,1.1,0-5.7,7.4-2.7,21.6,8.8,14.6,11.7,17.1,15,9.8,12.2-3.8-1.5-4.8-.1-3.5,4.6.6,2.1.9,3.9.7,4.1s-2.7-1.2-5.6-3.2c-5.7-3.8-7.3-3.8-6.4.3,1.6,6.8,14.2,21.4,19.7,22.7,1.7.5,2.4,1.2,2,2.1-2,5.3,3.7,16.8,8.1,16.2,3.3-.5,2.6-8-1.4-13.6-2.2-3.2-2.8-4.8-2.1-5.5,1.5-1.5,1.4-8.3-.4-15-.8-3.2-1.5-7.1-1.5-8.7s-.5-4.1-1.1-5.7c-1.5-4-17.1-18.9-25.9-24.8-7.1-4.8-7.9-5-15.2-5.4-8.1-.3-9.1-1-6.1-4.3,3.7-4.1,13.1-1.1,25.8,8.4,3.9,2.9,16,14.3,27,25.4,19.4,19.5,23.8,23.3,24.9,21.5.9-1.4-1.2-7.1-4.1-11.5-2.4-3.7-1.8-3.4,5.6,3.3,8.6,7.7,18.3,18.8,29,33.1,7.5,10,15,18,16.8,18,.8,0,1.3-1.2,1.3-2.8,0-1.8-2.9-6.6-8.7-14.7-8.5-11.8-13.3-19.3-13.3-20.8,0-.4.8-.7,1.8-.7,2.1,0,6,4,12.2,12.5,5.5,7.5,15.9,18.5,17.6,18.5.8,0,1-.9.4-3.3-.8-4-2.3-6.4-11.1-18.2-6.4-8.6-8.6-11.2-14.2-16.2-1.3-1.2-3.8-4.8-5.5-8.1-3.9-7.3-5.5-8.8-7.2-6.7-1.5,1.8-.7,6.7,2,11.8,1.1,2,2,4.2,2,4.8,0,2-6.4-2.8-17.2-12.9-12.4-11.8-15.8-13.7-21.9-12.3-5,1.1-6.6.6-7.5-2.2-.4-1.2-4.6-6.3-9.3-11.2-4.8-5-9.5-10.1-10.6-11.5l-2-2.4,3,1.9c1.7,1,6.2,4.7,10.2,8.1,9.7,8.5,13.9,10.6,19.7,9.8,4.4-.6,4.7-.5,8.8,3.8,2.4,2.4,6.9,7.4,10.2,11.1,6.1,7.1,8.3,8,7.8,3.1-.5-4.8-6.6-12.5-21-26.6-22.4-21.9-39.4-35.3-52.4-41.2-17.6-8.2-51.5-16.8-58.6-14.9-2.9.7-2.6,5,.6,7.1,1.3.8,7.4,2.1,14.2,2.9,18.9,2.1,32.3,6.7,44.3,14.9,2.7,1.9,5.7,3.4,6.6,3.4s3.4,1.2,5.6,2.7c9.1,6.1,31.1,25.1,30.1,26-.6.7-7.2-4-20.6-14.7-6.6-5.2-14.7-10.6-19-12.7-4.1-1.9-8.4-4.3-9.5-5.4-1.1-1-4-2.7-6.5-3.8-5.4-2.4-20-5.4-23.2-4.9l-2.3.5,2.5,1.1c2.1.9,2.2,1.1.6,1.1-3,.1-1.7.9,12.1,7,16.3,7.3,33.8,17.1,30.5,17.1-.7,0-2.9-1.1-5-2.4-6.8-4.5-40.2-16.6-50-18.2-4.2-.7-5.7.4-5.7,4.1,0,1.4-.9,2.1-3.5,2.7-4.1.8-11-.7-11-2.5,0-3.2-2.8-5-9.1-5.8l-6.4-.7,6.7.1c7.5.2,9.9-.8,4.4-1.9-2.1-.3-3.5-.8-3.2-1.1.2-.2,5.7.5,12.1,1.7,12.6,2.3,13.6,2.1,12.7-2.6-.7-3.9-3.7-4.7-17.9-4.9-7.3-.1-13.6-.4-13.9-.8-.3-.3,2.3-.5,5.8-.5,9.1.2,11-.6,10.6-4.5-.3-2.9-.6-3.2-4.3-3.5-2.2-.2-5.6.1-7.6.7-2.1.6-4.6.8-5.9.3-1.7-.6-.3-1.1,6-2.1,11.1-1.8,29.6-1.9,40.3-.2,8.6,1.4,8.8,1.4,11.5-.7,5.6-4.5,6.4-4.6,15.8-1.9,4.9,1.4,9.2,2.3,9.6,2.1,2.8-1.7-1.3-11.5-6.1-14.9-7.9-5.4-19.5-8.1-26-6-1.6.5-2.1.2-2.1-1.3,0-2.2-1.8-3.2-6-3.2-6.8,0-8.2,4-2.8,8.5l3.1,2.6-15.5-.7c-17.7-.8-20.5-.4-21.8,3.1-1.1,2.8-3.1,3.1-7.5,1l-3-1.4,2.8.6c2.2.4,2.6.2,2.1-1.1-.7-1.9-.6-1.9-3.9-.6-1.6.6-2.4.6-2,0,1.2-2,9.4-3.3,22-3.4,16-.2,19.1-1.6,18.1-8-.6-3.8-2.7-4-15.4-1.7-6.7,1.1-13.8,2.1-15.8,2.1-3.1,0-3.5-.2-2.4-1.5.7-.8,2.4-1.5,3.8-1.5,2.9,0,6.2-2.6,6.2-4.8,0-1.1.7-1.3,2.7-.8,1.6.4,11.4,2,21.8,3.6,10.5,1.6,24.2,4.2,30.5,5.9,26.2,6.8,53.4,18.3,71.9,30.4,5.4,3.6,10.8,6.8,12,7.2,3.6,1.1,6.8-.3,9-3.9,2.8-4.5,2.6-8.3-.5-12.9-2.7-4.1-13.7-12.7-16.1-12.7-.8,0-1.3-.6-1-1.3.2-.7,2.1-1.2,4.3-1.2,3.3,0,3.9-.3,4.2-2.3.2-1.5-.5-3.4-2-4.9-4.2-4.4-24.8-15-32.6-16.7-2.9-.7-3.2-.5-2.9,1.3.5,3.1,3.2,5.5,9.5,8.5,7.9,3.9,16.2,8.9,16.2,9.9,0,1.4-7.1-.4-15.2-3.9-4.3-1.8-9.7-3.8-12-4.5-2.5-.6-5.4-2.3-6.8-4-2.2-2.4-4.1-3.2-14.5-5.3-6.6-1.4-17.3-3.6-23.9-5-14.4-3-31.3-5.2-32.4-4.1-.4.4-.1,1,.7,1.3,1,.3,1.1.6.1,1.2-2.1,1.3,1.2,2.5,19.1,6.9,9.1,2.3,21.5,5.7,27.5,7.7,35.7,11.8,79.4,32.8,75.7,36.5-1.6,1.6-8.9-1.7-24.1-10.9-8.1-4.9-17.9-10.5-21.8-12.5-25.4-12.8-110.7-27.5-122.8-21.2-2.5,1.4-2.7,1.4-1.6,0,.7-.8,2-1.5,2.9-1.6,1.2,0,1.1-.2-.4-.9-1.7-.6-1.4-.9,1.8-1.5,5.3-1,17.1-1.2,23.2-.3,6,.9,7.5.2,6.8-3.4-.7-3.5-2.1-4-13.8-4.8l-10-.7,13.1-.1c26-.4,56,3.4,82.8,10.3,7.6,1.9,14.1,3.3,14.5,3,1.5-.9-.1-5.5-2.7-7.5-1.3-1.1-3.8-2-5.3-2-3.3,0-3.9-1.6-.9-2.5,2.8-.9,7,.2,14.7,3.7,8.1,3.6,12.7,3.5,13.1-.3.4-3.2-1-4.3-7.5-5.7-2.8-.6-9.8-3.2-15.5-5.8-18.8-8.5-40.5-14.5-58.3-16.2l-8-.8,6-1.3c10.2-2.3,22.2.3,49.3,10.8,14,5.3,23.3,8.1,27.5,8.1,2,0,2.5-.5,2.5-2.6,0-2.3-1.4-3.2-12.3-8.4-14.4-7-24.7-10.5-48.5-16.4-19.5-4.9-32.7-7.3-33.8-6.1-.4.4-.1,1,.6,1.2.6.3.9,1,.6,1.5-.4.6.1,1.7,1.1,2.4,1.7,1.3,1.7,1.4,0,2-1.4.6-2.8-.4-5.8-3.9-2.6-3.2-4.7-4.7-6.3-4.7-2.2,0-2.4.4-2.4,4.5,0,5.1-1.5,6.4-5.9,4.9-2-.7-2.7-1.7-2.9-4.2-.4-3.8-2.8-4.8-10.2-3.9-5.6.7-10.2,2.8-14.5,6.6-1.9,1.7-2.5,1.9-1.5.6.8-1.1,2.3-2.8,3.5-3.8q2-1.8-.5-.6c-1.4.6-3.6,2.1-5,3.3-1.4,1.1-.6,0,1.7-2.4,3.2-3.4,4.1-5,3.7-6.8-.5-1.6-1.4-2.2-3.5-2.2-1.5,0-3-.4-3.3-.8-.2-.4,1.1-.6,3.1-.4,2.5.3,3.4.1,2.9-.7-.4-.7-1.7-.9-2.9-.6s.7-.9,4.3-2.7c6-3.1,6.5-3.5,6.2-6.3-.2-2.7-4.1-7.5-6.1-7.5-.4,0-2.2,1.3-3.9,3-1.8,1.6-3.6,3-4.2,3s.3-1.2,2-2.8l3-2.7.3-15.5.3-15.5-3-3.3c-2-2.2.6-.7,7,4.1,12.5,9.3,28.4,19.2,42.3,26.3l10.6,5.4-8-.6c-4.4-.3-13.1-1.5-19.3-2.5-15.7-2.6-18-2.5-18.8.6-.9,3.5.4,11.1,2.1,12.5,1,.9,3.7.9,10.7,0,15.5-1.8,50.7-2.8,55.2-1.5,3.3,1-.7,1.3-24.5,1.8-31.3.7-48.6,2.5-43.1,4.4.9.4,1,.8.2,1.8-1.6,2,3.8,2.5,24,2.3,13.6-.2,18.5.2,22,1.4,3.1,1,6.7,1.4,11.3,1,6.7-.4,7-.3,9.7,2.6,2.2,2.5,3.8,3.1,8.6,3.7,8.8,1,13,2.2,22.6,6.6,5.9,2.7,9.8,3.9,12,3.7,3.1-.3,3.3-.5,3.2-3.9-.1-4.9-3-8.9-6.3-8.9-2.8,0-16.4-2.5-22.3-4.1-3.8-1-4.7-2.2-2.8-3.4.6-.4.9-1.4.8-2.3-.2-1.1.2-1.6,1.2-1.3.8.2,3.8,1,6.5,1.8,5.8,1.6,15.8,3.6,26.5,5.4,4.4.8,15.9,1.2,28,1.2,16.8,0,22.6-.4,32-2.2,6.3-1.2,12.9-2.1,14.5-2,1.7.1,4.2.2,5.7.2s2.9.6,3.2,1.2c.5,1.5,9.2,4.9,14.9,5.9,3.2.6,3.7.4,3.7-1.2,0-1-.8-2.6-1.8-3.5-2.7-2.5-10.8-5-14.3-4.5-4.7.7-2.8-1.3,3.4-3.6,3.2-1.2,5.5-2.5,5.1-2.8-.7-.8,2.9.3,9.1,2.6,8.6,3.2,17.5,1.5,17.5-3.4,0-2.3,2.2-3.1,6-2.3,3.9.7,3.8,1.6-.5,3.6-5.8,2.8-4.2,3.7,6.5,3.7,6.7,0,10.3.4,11,1.2.5.7,1.9,2.5,3,3.9,4.2,5.6,11,3.7,15-4.2,3.2-6.2,2.3-9.4-2.9-10.4-1.2-.2-2.6-.7-3.2-1-.7-.5-.8.4-.4,2.7.5,2.6.2,3.8-1.4,5.2-2,1.8-2.1,1.8-5.8-1.4-6.2-5.5-22.4-11.8-34.6-13.6-2.6-.3-4.6-.9-4.3-1.1.3-.3,3.5,0,7.2.6,4.7.9,7,.9,7.7.2.8-.8.5-1.1-1-1.1-2.3,0-7.3-3.6-7.3-5.3,0-.6.7-.2,1.5,1,2,2.8,8.5,4.6,13.9,3.8,12.3-1.9,31.6-8.9,29.7-10.8-.5-.5-5.5-1.3-11.1-1.7s-10.4-1.1-10.8-1.5.9-.5,2.9-.1c3.6.6,8.9-.9,8.9-2.5,0-.5-.6-1.4-1.3-2.1-.8-.7-1.2-2-1-2.9.4-1.2-.4-1.9-2.6-2.4-1.7-.3-3.3-1.1-3.6-1.5-.3-.5,1.1-.3,3.2.4,2.9,1,3.9,2,4.5,4.4.9,3.3,2.2,4.1,3.2,1.9.5-1,.7-1,1.2,0,.9,2,2.4,1.5,2.4-.7s3.9-4.4,5.4-3c1,1,6.1-.7,10.1-3.3,2-1.4,1.3-.3-2.2,3.4-2.9,3-5.3,5.7-5.3,6.1,0,1.6,8.1,1.7,11.5.1,3-1.4,3.8-1.5,4.4-.4.5.8,1.4,1,2.1.6s1.6-.2,2.1.6c1.7,2.8,11.8-6.8,19.7-18.7.7-1,.1.5-1.4,3.4-1.4,3-4.3,7.3-6.5,9.7-2.1,2.3-3.9,4.7-3.9,5.2,0,1.4,3.1,4,5.3,4.4,1.4.3.7,1.4-3.4,5.4-4.8,4.6-5,4.7-2.1,1,3.5-4.4,4.2-7.1,1.5-6.1-.9.4-2,.1-2.4-.5-.5-.9-1.7-.6-4.4.9-2,1.2-3.3,1.7-3,1.2.9-1.5-1.3-4-3-3.4-.7.3-1.6.1-1.9-.5-.8-1.3-3.8,0-13.4,5.7-4.1,2.5-7.9,5.5-8.5,6.9-.9,2-.7,2.8,1.5,4.9,1.4,1.4,4.9,3.4,7.7,4.3l5.1,1.7-3,4-3,4.1,3.8.7c3,.5,5,0,10.7-2.9,7.7-3.9,22.3-14,30-20.8,4.9-4.3,4.9-4.4,4-8.3-.8-2.9-1.6-4-3.2-4.2-2.7-.4-2.9-1.9-.7-5,.9-1.3,2.4-4.6,3.5-7.5l1.8-5.2.1,5.5c0,3.1.9,7.3,1.9,9.6,1.6,3.6,2.3,4.1,5.5,4.2,2.8.1,3.9-.4,5.2-2.4,1.6-2.4,1.6-2.6-1.4-5.7-3.6-3.7-3.5-4.5,1.1-14.7,5-11.2,7.3-28.5,3.7-28.5-.8,0-1.9-.6-2.3-1.3-.7-1.1-1.3-1-2.9.5q-2.1,1.8-1.4-1.2c.4-1.6.8-3,.9-3s1.6-1,3.4-2.2c1.9-1.4,3.4-1.9,3.8-1.3,1.8,2.9,3.5,0,4.6-8,.6-4.5.7-3.8.4,3.5-.1,4.9-1.3,13.6-2.5,19.3-1.7,8.3-1.9,10.6-.9,11.8.7.8,1.8,1.3,2.4,1,.7-.2,1.7,0,2.3.6.8.8,1.6.7,2.8-.3,1.6-1.3,1.7-1.2,1,.6-.5,1.1-1,2.7-1.3,3.6-.5,1.7-4.9,2.3-5.9.8-.8-1.3-4.1.8-6,3.6-1.3,2.1-1.4,2.8-.4,4.1.7.8,1.9,1.3,2.6,1s1.6-.1,1.9.4,1.2.7,2,.4c.9-.4.1,2.5-2.4,8.3-2.1,4.8-3.7,9.1-3.4,9.5.2.4,1.7-.7,3.4-2.5l3-3.2-1.6,3.2c-2,4.3-1,4.2,3.7-.4,5.5-5.4,4.7-2.1-1.6,6.1-7.3,9.7-8.2,11.4-5.9,12.3.9.4,3.2.7,5,.7,1.8.1,3.3.4,3.3.7,0,.4-2.2,3.5-5,7-2.7,3.5-5,6.8-5,7.2,0,.5,1.9-.6,4.2-2.5l4.3-3.3-2.3,3.2c-1.3,1.8-2,3.3-1.7,3.3,2.1,0,19.9-15.3,32-27.4,13-13.1,20.5-22.3,20.5-25.2,0-.6-1.7-1.5-3.7-1.9-4.2-.8-5.4.2-10.3,8.5-1.4,2.3-3.4,4.7-4.5,5.2q-1.9,1.1-.1-1.8c1-1.6,3.4-5,5.2-7.6,5.6-8,7.3-11.9,9.8-23.1.6-2.7.7-2.7,8.5-2.7,9.3,0,11.6-1.5,8.1-5-2.6-2.6-4-10.3-4-21.7v-8.1l7.3-.6c3.9-.3,8.8-.8,10.7-.9,7.1-.7,10-.7,22.6.3ZM747.34,304.57c5.1,2.5,9,8.8,9,14.4,0,4.4-1.2,4.2-5.2-.8-6.9-8.7-11-12.7-13.8-13.9-1.7-.7-3-1.8-3-2.5,0-1.7,6.8-.2,13,2.8ZM464.24,306.67c-.2.2-1.3-.8-2.3-2.2l-1.9-2.7,2.4,2.2c1.2,1.2,2.1,2.4,1.8,2.7ZM491.44,306.37c-.6,1.8-1.1,4.6-1.1,6.3q-.1,3.1-1.6-.9c-2.9-7.6-2.9-8.3.2-8.7,3.8-.5,3.8-.4,2.5,3.3ZM456.64,309.27c-.3,1.2-.8,1.9-1.1,1.6-.5-.6.5-3.6,1.2-3.6.2,0,.2.9-.1,2ZM414.04,310.47c-.3.8-.6.5-.6-.6-.1-1.1.2-1.7.5-1.3.3.3.4,1.2.1,1.9ZM433.54,314.97c.2,2.3,0,3.9-.3,3.5-1-.9-1.2-2.9-.9-7.2.3-4,.7-2.5,1.2,3.7ZM465.04,311.47c-.3.7-.5.2-.5-1.2s.2-1.9.5-1.3c.2.7.2,1.9,0,2.5ZM380.44,313.97c-1.2,2-1.4,1.4-.5-1.2.4-.9.9-1.4,1.1-1.1.3.2,0,1.3-.6,2.3ZM396.84,313.27c-.3.5-1.2.7-2,.3-2.1-.7-1.9-1.3.6-1.3,1.1,0,1.8.4,1.4,1ZM412.74,320.37c-.4,4.1-.9,6.8-1.2,6.1-.5-1.6.8-14.5,1.4-13.9.2.2.1,3.7-.2,7.8ZM454.64,323.47c-.7,6.2-1.9,13.3-2.8,15.8l-1.4,4.5.4-4c.9-9.1,3.9-27.5,4.5-27.5.3,0,0,5.1-.7,11.2ZM627.04,314.47c-.3.8-.6.5-.6-.6-.1-1.1.2-1.7.5-1.3.3.3.4,1.2.1,1.9ZM639.34,315.47q1,2.2-.4.4c-2-2.5-4.3-1.4-5.5,2.6-.6,2.1-1,2.6-1,1.3-.1-2.6,2.6-6.5,4.4-6.5.8,0,1.9,1,2.5,2.2ZM338.04,314.87c-.3.3-1.2.4-1.9.1-.8-.3-.5-.6.6-.6,1.1-.1,1.7.2,1.3.5ZM392.84,316.27c-1,1.1-2.1,1.8-2.3,1.5-.3-.3.3-1.2,1.4-2,2.7-2,3-1.8.9.5ZM647.24,318.17c-.6,1.8-1.3,3-1.5,2.8s.1-1.8.7-3.6,1.3-3,1.5-2.8-.1,1.8-.7,3.6ZM744.54,319.17c5.2,4.9,6.2,7.7,1.6,4.7-1.4-.9-2.7-1.4-3-1.1-.2.3.1,4.9.8,10.2,1.6,13.2,2.5,28.3,1.5,25.8-.5-1.1-1.1-4.9-1.5-8.5-.7-6.9-5.2-31.9-6.2-34.5-1.1-2.8,1.4-1.5,6.8,3.4ZM780.84,324.37c2.9,9.2,3.1,13.5,1,16.6-1.3,1.8-1.3,2.6-.3,4.3.7,1.1,2,2,2.8,2,1.3.1,1.3.2,0,.9-.8.5-2.5,1.2-3.7,1.5-2.1.7-2.3.4-2.3-2.5,0-1.7-.7-8.9-1.6-16-2.3-18.3-.5-21.3,4.1-6.8ZM378.34,318.17c-.5,1.1-1.5,2.3-2.1,2.7-.6.3-.3-.5.6-2,2-3,3-3.5,1.5-.7ZM629.04,318.47c-.3.8-.6.5-.6-.6-.1-1.1.2-1.7.5-1.3.3.3.4,1.2.1,1.9ZM665.34,316.67c0,.2-.8,1-1.7,1.7-1.6,1.3-1.7,1.2-.4-.4s2.1-2.1,2.1-1.3ZM465.04,323.97c-.3,1-.5.2-.5-1.7s.2-2.7.5-1.8c.2,1,.2,2.6,0,3.5ZM662.34,320.67c0,.2-.8,1-1.7,1.7-1.6,1.3-1.7,1.2-.4-.4s2.1-2.1,2.1-1.3ZM375.34,322.67c0,.2-.8,1-1.7,1.7-1.6,1.3-1.7,1.2-.4-.4s2.1-2.1,2.1-1.3ZM399.04,324.47c-.3.8-.6.5-.6-.6-.1-1.1.2-1.7.5-1.3.3.3.4,1.2.1,1.9ZM644.34,325.97q-1.1,1.7-.6,0c.3-1,.6-2.4.7-3,0-.9.2-.9.5,0,.3.7,0,2-.6,3ZM356.84,325.27c1,1.1,1.5,2.3,1.2,2.7-.4.3-.7.2-.7-.4s-1-.9-2.2-.7c-2.1.4-2.1.3-.3-.4q1.9-.9,0-2c-1.1-.6-1.5-1.2-.9-1.2s1.9.9,2.9,2ZM642.04,325.47c-.3.8-.6.5-.6-.6-.1-1.1.2-1.7.5-1.3.3.3.4,1.2.1,1.9ZM394.04,324.87c-.3.3-1.2.4-1.9.1-.8-.3-.5-.6.6-.6,1.1-.1,1.7.2,1.3.5ZM351.64,325.97c-.7.2-1.9.2-2.5,0-.7-.3-.2-.5,1.2-.5s1.9.2,1.3.5ZM370.34,325.67c0,.2-.8,1-1.7,1.7-1.6,1.3-1.7,1.2-.4-.4s2.1-2.1,2.1-1.3ZM335.04,326.87c-.3.3-1.2.4-1.9.1-.8-.3-.5-.6.6-.6,1.1-.1,1.7.2,1.3.5ZM346.24,326.67c-1.5,1.3-4.9,2.5-4.9,1.7,0-.5.8-1.2,1.8-1.4,2.4-.6,3.6-.8,3.1-.3ZM372.34,326.57c0,.1-2.6,2.7-5.7,5.7l-5.8,5.5,5.5-5.8c5-5.3,6-6.2,6-5.4ZM398.94,333.97c0,.1-1.2-.5-2.6-1.4-1.4-.8-1.7-1.2-.7-.9,1.4.4,1.7-.1,1.8-2.7.1-3.1.2-3,.9.8.4,2.2.7,4.1.6,4.2ZM464.04,331.97c-.3,1-.5.2-.5-1.7s.2-2.7.5-1.8c.2,1,.2,2.6,0,3.5ZM656.34,329.27c-.6,1.1-1.3,2-1.6,2-.2,0,0-.9.6-2s1.3-2,1.6-2c.2,0,0,.9-.6,2ZM387.04,328.87c-.3.3-1.2.4-1.9.1-.8-.3-.5-.6.6-.6,1.1-.1,1.7.2,1.3.5ZM416.04,328.87c-.3.3-1.2.4-1.9.1-.8-.3-.5-.6.6-.6,1.1-.1,1.7.2,1.3.5ZM340.04,329.87c-.3.3-1.2.4-1.9.1-.8-.3-.5-.6.6-.6,1.1-.1,1.7.2,1.3.5ZM366.34,329.57c0,.2-1,1.2-2.2,2.3l-2.3,1.9,1.9-2.3c1.8-2.1,2.6-2.7,2.6-1.9ZM391.04,329.87c-.3.3-1.2.4-1.9.1-.8-.3-.5-.6.6-.6,1.1-.1,1.7.2,1.3.5ZM334.14,330.97c-1,.2-2.6.2-3.5,0-1-.3-.2-.5,1.7-.5s2.7.2,1.8.5ZM407.34,343.27c-1.7,4.3-3.7,8.3-4.4,8.9-.8.7-3.8,1-6.7.9-5.3-.3-5.4-.3-6.6,3.2-.6,1.9-1.2,2.7-1.2,1.7-.1-1.4-.6-1.7-2.1-1.2-1.1.4-2,.2-2-.4,0-3.1-7.6,1.2-16,9.2l-5,4.8-1-2.7c-.6-1.5-1.3-3.1-1.6-3.5-.3-.5-.3-.9,0-.9s1.1,1.1,1.8,2.4l1.3,2.4,2.8-2.4q2.8-2.4.5-2.5-2.1-.1.4-.9c1.5-.4,4.7-2.4,7.1-4.4,5.2-4.3,11.2-6.9,13.7-6.1,2,.6,8-1.9,8-3.4,0-.9,3.1-.8,4.7.2,1.5.9,3.5-2.2,5.3-8.1.7-2.3,1.7-4.2,2.2-4.2s.6-1.2.3-2.8c-.5-2.5-.5-2.6.5-.4.8,1.8.3,4-2,10.2ZM418.14,336.97c-1.5,9.5-2.7,12.7-2.1,5.4.5-5.1.3-6.3-.8-5.9-.7.2-1.6,1.5-2,2.9-.7,2.3-.7,2.2-.8-.6-.1-2.1.7-3.6,2.7-5.2,1.5-1.2,3-2.2,3.3-2.3.3,0,.2,2.6-.3,5.7ZM478.14,334.67c1.3,1.6,2.1,5.6,1.2,5.6-.5,0-1.1-.6-1.4-1.3-.4-.6-.4-.1-.2,1.3q.5,2.5-1.9-.5c-3.1-3.8-3.4-7.5-.5-6.8,1,.3,2.3,1,2.8,1.7ZM461.84,342.47c-2.1,8.9-7.3,23.6-8.6,24.4-1.4.8,0-4.1,3.2-11.1,1.5-3.3,3.5-9.5,4.5-13.7,1-4.3,2-7.5,2.2-7.3.3.2-.3,3.7-1.3,7.7ZM322.04,335.87c-.3.3-1.2.4-1.9.1-.8-.3-.5-.6.6-.6,1.1-.1,1.7.2,1.3.5ZM326.64,336.97c-.7.2-1.9.2-2.5,0-.7-.3-.2-.5,1.2-.5s1.9.2,1.3.5ZM343.14,337.97c-2.1.2-5.5.2-7.5,0-2.1-.2-.4-.4,3.7-.4s5.8.2,3.8.4ZM391.34,338.17c0,.5-.9,1.9-2,3.2l-2,2.4,1.6-3.3c1.5-3.2,2.4-4,2.4-2.3ZM376.44,340.07c-2.3,4.3-12.9,12.2-16.3,12.2-.7,0,.5-.9,2.7-1.9s4.9-2.6,6-3.6l2-1.7-2,.6c-1.7.5-1.6.3.5-1.3,1.4-1.1,2.6-1.8,2.9-1.6.2.3,1.2-.7,2.3-2,2.3-2.9,3.3-3.3,1.9-.7ZM326.04,339.87c-.3.3-1.2.4-1.9.1-.8-.3-.5-.6.6-.6,1.1-.1,1.7.2,1.3.5ZM356.34,340.27c-.8.5-2.2.9-3,.9-1,0-.8-.3.5-.9,2.7-1.2,4.3-1.2,2.5,0ZM474.34,344.77c0,3.9-2.8,9.8-8.4,18.1-6,8.7-6.6,11.1-3.5,13.5,2,1.6,2.2,2,.9,2.9-1,.6-1.6.6-1.9-.3-.2-.7-2.1-3.3-4.2-5.8l-3.8-4.6,3.1-2.9c2.5-2.3,3-2.5,2.4-.9-.5,1.1-1,2.7-1.3,3.5s1.7-.7,4.5-3.4c6.2-6,9-11.6,9.9-19.7.6-6.1,2.3-6.4,2.3-.4ZM333.64,340.97c-.7.2-2.1.2-3,0-1-.3-.4-.5,1.2-.5,1.7,0,2.4.2,1.8.5ZM349.14,341.97c-1.5.2-4.2.2-6,0s-.6-.4,2.7-.4,4.8.2,3.3.4ZM426.84,348.07c-.3,2.7-1.8,6.7-3.1,8.8-1.4,2.1-2.2,3-1.8,1.9s1.7-5.2,2.8-9.2c1.2-3.9,2.3-7,2.5-6.8.1.2,0,2.6-.4,5.3ZM754.44,363.77c-1.1,13.3-2.9,23.5-5.6,31.5l-1.5,4.5.5-5c.2-2.8,1.4-8.4,2.6-12.5,1.7-5.9,2.3-11,2.7-24,.4-13.8.7-15.8,1.5-12,.6,3,.6,8.9-.2,17.5ZM292.34,346.77c1.3,1.4,2.1,2.5,1.8,2.5-.2,0-1.5-1.1-2.8-2.5s-2.1-2.5-1.8-2.5c.2,0,1.5,1.1,2.8,2.5ZM364.34,347.77c-1.4.8-3.2,1.4-4,1.4s-.1-.6,1.5-1.4c4-1.8,5.7-1.8,2.5,0ZM322.04,348.87c-.3.3-1.2.4-1.9.1-.8-.3-.5-.6.6-.6,1.1-.1,1.7.2,1.3.5ZM326.04,349.87c-.3.3-1.2.4-1.9.1-.8-.3-.5-.6.6-.6,1.1-.1,1.7.2,1.3.5ZM331.64,350.97c-.7.2-2.1.2-3,0-1-.3-.4-.5,1.2-.5,1.7,0,2.4.2,1.8.5ZM353.64,350.97c-.7.2-1.9.2-2.5,0-.7-.3-.2-.5,1.2-.5s1.9.2,1.3.5ZM315.64,351.97c-1.3.2-3.3.2-4.5,0-1.3-.2-.3-.4,2.2-.4s3.5.2,2.3.4ZM343.64,351.97c-1.3.2-3.5.2-5,0-1.6-.2-.5-.4,2.2-.4s4,.2,2.8.4ZM322.34,353.27c1.8,1.2.2,1.2-2.5,0-1.3-.6-1.5-.9-.5-.9.8,0,2.2.4,3,.9ZM355.84,353.27c-1.6.4-3.9.8-5,.8-1.6,0-1.5-.2.5-.8,1.4-.4,3.6-.8,5-.8,2.2,0,2.2.1-.5.8ZM244.84,355.27c1,1.1,1.6,2,1.3,2s-1.3-.9-2.3-2-1.6-2-1.3-2,1.3.9,2.3,2ZM336.84,355.27c.3.6-.1.7-.9.4-1.8-.7-2.1-1.4-.7-1.4.6,0,1.3.4,1.6,1ZM347.04,357.27c-.7,1.7-1.3,2.6-1.5,2.1-.3-1,1.5-5.1,2.2-5.1.3,0-.1,1.4-.7,3ZM787.34,362.07c0,8.1-.9,14.2-2.1,14.2-.5,0-.9-1.5-.9-3.3s-.7-6-1.6-9.2c-1.5-5.9-1.5-6,.7-7.7,1.1-1,2.5-1.5,3-1.2s.9,3.5.9,7.2ZM305.84,357.17c-.3.6-1.4,1-2.3,1-1.5-.1-1.5-.2.1-.6.9-.2,1.7-.9,1.7-1.5s.3-.9.6-.5c.3.3.3,1-.1,1.6ZM334.54,362.57c.8.3.9.6.1.6-1.3.1-5.3-4.6-5.3-6.3,0-.6.9.3,1.9,2,1.1,1.8,2.5,3.4,3.3,3.7ZM361.94,361.97c-.6.6-3.6-.9-3.6-1.8,0-.5.9-.4,2,.3,1,.7,1.8,1.4,1.6,1.5ZM346.24,365.27c0,1-.3.8-.9-.5-1.2-2.7-1.2-4.3,0-2.5.5.8.9,2.2.9,3ZM305.84,366.27c.3.5-1,.1-2.9-1.1-2-1.2-3.6-2.3-3.6-2.5,0-.7,5.8,2.5,6.5,3.6ZM698.04,364.47c-.3.8-.6.5-.6-.6-.1-1.1.2-1.7.5-1.3.3.3.4,1.2.1,1.9ZM339.04,363.87c-.3.3-1.2.4-1.9.1-.8-.3-.5-.6.6-.6,1.1-.1,1.7.2,1.3.5ZM326.64,364.97c-1.3.2-3.3.2-4.5,0-1.3-.2-.3-.4,2.2-.4s3.5.2,2.3.4ZM689.04,367.47c-.3.7-.5.2-.5-1.2s.2-1.9.5-1.3c.2.7.2,1.9,0,2.5ZM336.64,365.97c-1.3.2-3.3.2-4.5,0-1.3-.2-.3-.4,2.2-.4s3.5.2,2.3.4ZM298.04,366.87c-.3.3-1.2.4-1.9.1-.8-.3-.5-.6.6-.6,1.1-.1,1.7.2,1.3.5ZM342.04,366.87c-.3.3-1.2.4-1.9.1-.8-.3-.5-.6.6-.6,1.1-.1,1.7.2,1.3.5ZM699.04,370.97c-.3,1-.5.2-.5-1.7s.2-2.7.5-1.8c.2,1,.2,2.6,0,3.5ZM692.34,379.27c.5,0,1.7,1.5,2.5,3.2,1.4,2.9,1.4,3.1,0,1.4-.8-1.1-1.5-2.3-1.5-2.8,0-.4-.7-.8-1.6-.8-1.5,0-1.6,1.2-1.1,11.2.5,9.5,1.8,17,5.3,30.3.4,1.5.3,1.7-.4.5-.6-.8-1.6-4.2-2.3-7.5-1.1-5-1.4-5.6-2-3.5-.5,1.8-.7.9-.8-3-.1-3-.6-8.4-1.3-12-.6-3.6-1.1-7.9-1.1-9.5,0-1.7-.2-2.4-.4-1.7-.3.6-.9,1-1.4.6-.5-.3.2-1.9,1.6-3.6,2-2.4,2.5-4.2,2.7-9.1l.2-6.2.3,6.2c.2,3.5.8,6.3,1.3,6.3ZM344.34,372.87c0,.2-1.9.4-4.2.3-3.1,0-3.7-.3-2.4-.8,1.8-.7,6.6-.3,6.6.5ZM326.34,374.47c.9,2,.9,2.1-.2.7-.7-.9-2-1.8-2.8-2.2-1.2-.4-1.2-.6.2-.6,1-.1,2.2.9,2.8,2.1ZM813.84,373.27c-.3.5-1.1,1-1.6,1-.6,0-.7-.5-.4-1,.3-.6,1.1-1,1.6-1,.6,0,.7.4.4,1ZM350.84,374.27c2.5,1.1-.1,1.1-3.5,0-2-.6-2.1-.8-.5-.8,1.1,0,2.9.3,4,.8ZM277.84,377.27c1,1.1,1.6,2,1.3,2s-1.3-.9-2.3-2-1.6-2-1.3-2,1.3.9,2.3,2ZM811.74,389.47c-4,24.8-9.7,44.4-14.5,50-1.7,2-1.6,1.3.7-4.7,6.4-16.9,10.4-34.6,10.4-46.3,0-6.8,2.1-13.2,4.3-13.2,1.1,0,1,2.5-.9,14.2ZM254.84,378.27c1,1.1,1.6,2,1.3,2s-1.3-.9-2.3-2-1.6-2-1.3-2,1.3.9,2.3,2ZM333.34,378.57c1.3.5,1.3.6-.1.6-.8.1-2.4-.6-3.5-1.5q-1.9-1.5.1-.6c1.1.5,2.7,1.2,3.5,1.5ZM308.04,378.87c-.3.3-1.2.4-1.9.1-.8-.3-.5-.6.6-.6,1.1-.1,1.7.2,1.3.5ZM312.04,379.87c-.3.3-1.2.4-1.9.1-.8-.3-.5-.6.6-.6,1.1-.1,1.7.2,1.3.5ZM343.24,380.87c.9.8-4.5.2-6.4-.6-1.4-.7-.8-.8,2-.3,2.2.3,4.2.7,4.4.9ZM300.64,380.97c-.7.2-1.9.2-2.5,0-.7-.3-.2-.5,1.2-.5s1.9.2,1.3.5ZM320.04,380.87c-.3.3-1.2.4-1.9.1-.8-.3-.5-.6.6-.6,1.1-.1,1.7.2,1.3.5ZM305.04,381.87c-.3.3-1.2.4-1.9.1-.8-.3-.5-.6.6-.6,1.1-.1,1.7.2,1.3.5ZM700.04,385.97c-.3,1-.5.2-.5-1.7s.2-2.7.5-1.8c.2,1,.2,2.6,0,3.5ZM310.34,383.27c1.8,1.2.2,1.2-2.5,0-1.3-.6-1.5-.9-.5-.9.8,0,2.2.4,3,.9ZM344.64,383.97c-1.8.2-4.8.2-6.5,0-1.8-.2-.4-.4,3.2-.4s5,.2,3.3.4ZM457.14,387.77c-1.3,3.7-5.1,6.4-6.3,4.5-.6-.9,6.4-9.4,7.2-8.7.2.2-.2,2.1-.9,4.2ZM305.84,392.07c-.5.6-12.4-4.9-13.4-6.2-.5-.6,2.4.5,6.4,2.4s7.1,3.7,7,3.8ZM333.14,384.97c-1,.2-2.6.2-3.5,0-1-.3-.2-.5,1.7-.5s2.7.2,1.8.5ZM327.04,385.87c-.3.3-1.2.4-1.9.1-.8-.3-.5-.6.6-.6,1.1-.1,1.7.2,1.3.5ZM318.44,387.97c1.3,1.6,1.2,1.7-.3.4-1-.7-1.8-1.5-1.8-1.7,0-.8.8-.3,2.1,1.3ZM701.04,392.47c-.3.7-.5.2-.5-1.2s.2-1.9.5-1.3c.2.7.2,1.9,0,2.5ZM280.34,392.87c0,.2-.9,0-2-.6s-2-1.3-2-1.6c0-.2.9,0,2,.6s2,1.3,2,1.6ZM383.84,392.77c-4.7,4-12.5,7.8-12.5,6.2,0-2.2,3.1-4.4,9-6.5,3-1.1,5.7-2,6-2.1.3,0-.8,1-2.5,2.4ZM258.44,393.97c1.3,1.6,1.2,1.7-.3.4-1-.7-1.8-1.5-1.8-1.7,0-.8.8-.3,2.1,1.3ZM298.44,394.07c-.7.2-1.8-.1-2.3-.6-.8-.8-.4-.9,1.3-.5,1.3.4,1.8.8,1,1.1ZM313.34,393.27c2,.6,2.1.8.5.8-1.1,0-3.1-.4-4.5-.8-2-.6-2.1-.8-.5-.8,1.1,0,3.1.4,4.5.8ZM287.34,396.87c0,.2-.9,0-2-.6s-2-1.3-2-1.6c0-.2.9,0,2,.6s2,1.3,2,1.6ZM304.64,394.97c-.7.2-2.1.2-3,0-1-.3-.4-.5,1.2-.5,1.7,0,2.4.2,1.8.5ZM312.14,395.97c-1,.2-2.8.2-4,0-1.3-.2-.5-.4,1.7-.4,2.2-.1,3.2.1,2.3.4ZM65.04,396.87c-.3.3-1.2.4-1.9.1-.8-.3-.5-.6.6-.6,1.1-.1,1.7.2,1.3.5ZM264.44,398.97c1.3,1.6,1.2,1.7-.3.4-1-.7-1.8-1.5-1.8-1.7,0-.8.8-.3,2.1,1.3ZM293.44,400.97c1.3,1.6,1.2,1.7-.3.4-1-.7-1.8-1.5-1.8-1.7,0-.8.8-.3,2.1,1.3ZM249.44,401.97c1.3,1.6,1.2,1.7-.3.4-1-.7-1.8-1.5-1.8-1.7,0-.8.8-.3,2.1,1.3ZM272.94,404.07c-.5.4-6.6-2.6-6.6-3.3,0-.3,1.6.3,3.5,1.2s3.3,1.8,3.1,2.1ZM298.34,404.77c1.3,1.4,2.1,2.5,1.8,2.5-.2,0-1.5-1.1-2.8-2.5s-2.1-2.5-1.8-2.5c.2,0,1.5,1.1,2.8,2.5ZM314.64,404.77c3.4,2.3,4.8,4.5,3,4.5-1.2-.1-4-2.4-4.1-3.5-.1-.6-.6-1-1.1-1-.6,0-1.6-.6-2.2-1.3-2.2-2.1.5-1.3,4.4,1.3ZM756.44,413.07c-1.1,4.8-2.2,9.8-2.4,11.2-.3,1.4-.5,0-.6-3-.1-5.1,2-15.7,3.6-18.3s1.4,2-.6,10.1ZM255.84,406.07c-.3.3-1.1,0-1.8-.7-.9-1-.8-1.1.6-.5,1,.3,1.5.9,1.2,1.2ZM277.04,404.87c-.3.3-1.2.4-1.9.1-.8-.3-.5-.6.6-.6,1.1-.1,1.7.2,1.3.5ZM68.34,406.27c-.8.5-1.9,1-2.5,1-.5,0-.3-.5.5-1s2-1,2.5-1c.6,0,.3.5-.5,1ZM282.04,405.87c-.3.3-1.2.4-1.9.1-.8-.3-.5-.6.6-.6,1.1-.1,1.7.2,1.3.5ZM297.84,407.27c1,1.1,1.6,2,1.3,2s-1.3-.9-2.3-2-1.6-2-1.3-2,1.3.9,2.3,2ZM289.64,412.17c-.2.3-1.8-1-3.6-2.9l-3.2-3.4,3.6,3c2,1.6,3.4,3.1,3.2,3.3ZM294.04,412.87c-.3.3-1.2.4-1.9.1-.8-.3-.5-.6.6-.6,1.1-.1,1.7.2,1.3.5ZM274.84,416.27c1,1.1,1.6,2,1.3,2s-1.3-.9-2.3-2-1.6-2-1.3-2,1.3.9,2.3,2ZM692.64,421.27c.3,4.1.2,5.4-.3,3.5-.8-3.1-1.3-11.2-.6-10.4.2.2.6,3.3.9,6.9ZM748.24,416.47c0,1.3-.4,3.2-.9,4.3-.7,1.5-.9,1-.9-2.3-.1-2.3.4-4.2.9-4.2.6,0,1,1,.9,2.2ZM71.04,418.87c-.3.3-1.2.4-1.9.1-.8-.3-.5-.6.6-.6,1.1-.1,1.7.2,1.3.5ZM694.04,430.47c-.3.8-.6.5-.6-.6-.1-1.1.2-1.7.5-1.3.3.3.4,1.2.1,1.9ZM77.34,433.67c0,.3-.4.8-1,1.1-.5.3-1,.1-1-.4,0-.6.5-1.1,1-1.1.6,0,1,.2,1,.4ZM82.74,438.47c-1,1.6,3.9,2.8,11.8,2.9,7.2.1,7.8.2,4.3,1-2.2.4-8.1.6-13.1.2-8.9-.5-9-.5-10.7,2.1-1,1.4-2.1,2.6-2.6,2.6s.3-1.4,1.7-3c1.5-1.7,3.2-3,3.9-3s1.3-.6,1.3-1.4.6-1.7,1.3-1.9c.6-.3-.1-.6-1.8-.7l-3-.2,3-.7c2.9-.7,4.9.4,3.9,2.1ZM807.84,456.27c2.3,2.4,2.5,3.1,1.6,4.9-.9,1.5-2.1,2.1-4.6,2.1-2.9,0-4,.7-7.4,5-8.4,10.6-17,29.7-15.5,34.3.6,1.8.4,2-.8,1-.8-.7-2.4-1.6-3.5-2-2.1-.8-1.8-1.4,5.3-14.3,7.7-14,8.6-16.2,5.7-13.9-1.5,1.2-1.6,1.2-.9-.6,1.7-4.4,1.7-4.9-.2-2.8-3.9,4.5-3.7,3.8,5.8-19.2.7-1.6.9-1.2,1.5,2.2.4,2.4,1.1,4.3,1.6,4.3.4,0,.9.7,1.1,1.6s1.7-2,3.3-6.4l3-8.2.7,4.6c.4,3,1.6,5.6,3.3,7.4ZM168.54,454.57c17.3,4.3,20.9,6.2,17.6,9.5-1.8,1.8-4.5,1.5-7.6-.8-6.1-4.5-29.8-7.4-70.7-8.7-13.2-.4-23.3-.8-22.5-1,5.9-1.3,26.4-2.1,47.5-1.9,23.3.2,25.7.4,35.7,2.9ZM757.14,457.37c-1.2,2.2-2.9,4.5-3.7,5.2-.7.6.1-1.2,1.9-4.1,3.7-6.1,5.1-7,1.8-1.1ZM682.64,472.77c3,3.8,5.7,7.7,6.1,8.5s-.3.2-1.6-1.5c-3.2-4.1-7.1-8.3-6.3-6.8.3.7.1,2.1-.4,3.2-.9,1.5-.7,2,.8,2.4,1.1.2,2.5,1.5,3.1,2.8l1.2,2.4-2.1-2.3c-1.2-1.2-2.8-2.2-3.5-2.2-1.7,0-5.2-8.1-6-14l-.7-4.5,2.1,2.5c1.1,1.4,4.4,5.6,7.3,9.5ZM88.24,464.67c-.2.2-4.4.6-9.4.9-5.3.3-7.3.2-5-.3,4.2-.8,15.1-1.3,14.4-.6ZM806.54,471.57c-.7.8-1.9,4.7-2.8,8.7-1.3,5.5-2.5,8.2-5,11-1.9,2.1-4.1,5.4-4.9,7.4-1.9,4.5-2.9,4.7-2.1.3.3-1.7.6-5.8.7-9l.2-5.7,2.3,2.1c1.2,1.1,3,1.9,4.1,1.7,1.5-.3,1.8-1.3,1.8-6.5,0-5.5.3-6.5,2.9-9.2,2.8-3,5.1-3.6,2.8-.8ZM89.64,483.97c-.7.2-1.9.2-2.5,0-.7-.3-.2-.5,1.2-.5s1.9.2,1.3.5ZM690.04,486.47c-.3.7-.5.2-.5-1.2s.2-1.9.5-1.3c.2.7.2,1.9,0,2.5ZM84.64,484.97c-.7.2-1.9.2-2.5,0-.7-.3-.2-.5,1.2-.5s1.9.2,1.3.5ZM680.94,489.97c2.3,3.1,2.4,3.4.5,1.8-2.2-1.9-4.6-5.5-3.8-5.5.3,0,1.7,1.7,3.3,3.7ZM85.34,493.67c0,.2-.7.7-1.6,1-.8.3-1.2.2-.9-.4.6-1,2.5-1.4,2.5-.6ZM89.44,510.57l-2.4,2.2,1.9-2.7c1-1.4,2.1-2.4,2.3-2.2.3.3-.6,1.5-1.8,2.7ZM40.34,519.77c0,1.4-6.6,6.5-8.4,6.5-.6,0,.8-1.8,2.9-4,4.2-4.3,5.5-4.9,5.5-2.5ZM741.54,540.27c-3.7,3.4-4.1,3.5-6.7,1.6-1.7-1.2-1.5-1.4,2.6-2.9,6.7-2.4,7.8-2,4.1,1.3ZM661.44,540.97c1.1,1.5,1.1,1.6-.1.5-2.3-2-3.9-1.4-5.7,2.2-1.5,3.2-1.5,3.7.1,6.3l1.7,2.8-2.1-2.4c-1.5-1.8-1.9-3.2-1.5-5,.8-3,3.3-6.1,5-6.1.7,0,1.9.8,2.6,1.7ZM112.04,552.87c-.3.3-1.2.4-1.9.1-.8-.3-.5-.6.6-.6,1.1-.1,1.7.2,1.3.5ZM136.34,555.77c7.6,2.3,8.6,3.7,1.4,2-11.4-2.7-22.4-1.5-20.9,2.3.5,1.4.4,1.5-.7.4s-.9-1.7,1.1-3.3c1.3-1,3.1-2,4-2.1.9,0-.6-.5-3.4-.9-3.8-.6-2.8-.7,4-.4,5,.2,11.5,1.1,14.5,2ZM153.34,555.77c-1.3,1.4-2.6,2.3-2.8,2-.7-.7,2.9-4.5,4.1-4.5.6,0,0,1.1-1.3,2.5ZM124.34,564.87c0,.2-4.2.3-9.2.2-8.5-.1-8.8-.2-3.3-.7,5.8-.6,12.5-.3,12.5.5ZM130.14,565.97c-1,.2-2.6.2-3.5,0-1-.3-.2-.5,1.7-.5s2.7.2,1.8.5ZM139.64,567.37c3.1.7,5.7,1.5,5.7,2,0,.4-1.5,2.4-3.4,4.3-2.8,3-4,3.6-7.2,3.5-2.8-.1-3.2-.3-1.4-.6,3.6-.7,4.9-2.1,4.6-5.1-.2-1.8-1.2-3-3.2-3.9-3.7-1.5-2.2-1.6,4.9-.2ZM125.64,576.97c-1.3.2-3.3.2-4.5,0-1.3-.2-.3-.4,2.2-.4s3.5.2,2.3.4ZM156.44,582.87c4.1,3.4,4.5,3.5,10,2.9,3.2-.4,6.5-.3,7.5.3,1.4.8,1.1,1.1-2,2.2-2.1.7-5.2.9-6.9.6-4.8-1-17.3-9.6-13.9-9.6.5,0,2.9,1.6,5.3,3.6ZM151.54,590.27c5.4,2.6,12.4,8.8,21.3,19.1,13.7,15.7,27.2,35.6,28.9,42.9.3,1.4-.3.7-1.3-1.5-1.4-2.9-2-3.4-2.1-2-.1,1.2-.8.2-1.7-2.5-2-5.6-5.7-11.1-13.8-20.4-7-8.1-13.1-15.9-13.7-17.7-.2-.6-2.2-1.4-4.3-1.8-2.9-.5-4.1-1.2-4.3-2.6-.5-2.8-3.8-6.1-10.4-10.6-9.1-6.2-8.4-7.6,1.4-2.9ZM141.84,597.27c-.3.5-1.2,1-1.8,1-.7,0-.6-.4.3-1,1.9-1.2,2.3-1.2,1.5,0ZM147.94,600.07c-.9.8-5.7-.8-5.1-1.8.3-.6,1.6-.5,3,.2,1.4.6,2.3,1.3,2.1,1.6ZM160.54,612.57c5.3,4.2,13.8,15.1,13.8,17.5-.1,1-.7.2-1.5-1.7-1.5-3.3-15.1-18.1-16.7-18.1-.5,0,1.3,3.3,4,7.2,5.8,8.7,6.4,9.8,5.9,9.8-.6,0-12.7-18.5-12.7-19.4s.5-.6,7.2,4.7ZM90.44,613.47c.8,1.4,1.3,8.2,1.5,17.8.3,19.4,2.2,29.4,7.4,41.3,2.3,5,4.3,10.9,4.4,12.9.2,3.3.8,4.2,4.7,6.6,7,4.6,18.2,17.2,16.6,18.9-.9.9-9-5.3-14.2-10.8-15.7-16.7-24.5-39.8-24.5-64.4,0-5-.6-9-1.4-10.7-1.4-2.6-1.3-2.9.7-4.3,1.7-1.2,2.1-2.3,1.8-5.5-.3-4.4,1.1-5.3,3-1.8ZM102.64,638.97c.4,7.1,1.2,11.8,2.5,14.6,1,2.3,2.4,5.5,3.1,7,.9,2.3,1.7,2.8,3.9,2.5,3.2-.4,3.2-1.8-.3-9.8-1.3-3-2.6-8.2-3-11.5l-.6-6,3.6,4.3c3,3.5,3.7,5.1,4,9.2.2,4.8,2.6,10,4.5,10,1.7,0,1.1-6.4-1-10-1.8-3-1.3-2.7,3,1.9,4.9,5.1,5,5.4,3.5,7.7-2.3,3.5-1.8,7.5,1.4,12.6,3.4,5.4,8.3,8.5,10,6.5,1.7-2.1-.1-6.4-3.9-8.9-4.4-3-5.2-5.8-1.6-5.8,3.8,0,11,7.4,10.2,10.4-.3,1.3,0,3.1.8,4.1,1.2,1.7,1.4,1.7,3.4-.3,1.8-1.8,2.2-1.9,4.1-.6,2.9,2,2.6,2.9-1.1,4.5-7,2.9-14.4,1.4-22.8-4.7-2.6-1.9-4.3-2.4-6.5-2-3,.6-3,.5-2.7-3.2.3-2.8-.1-4.2-1.6-5.5-1.8-1.7-2.1-1.7-3.7-.1-3.2,3.3.9,14,8.8,23,3.8,4.4,9.4,8.1,10.4,7,1.4-1.3-1-5.6-4.6-8-2.2-1.5-4.7-3.6-5.7-4.7-3.3-3.6-.5-3.1,5.7,1,3.4,2.2,7,4.1,8,4.1,1.6,0,1.8.7,1.7,4.5-.4,9,3.6,8.5,14.7-1.5,4.3-3.9,8-6.9,8.2-6.7,1.4,1.5-6.7,16.1-9.5,17.2-.9.3-6,.9-11.3,1.2l-9.6.6-4.2-3.9c-5-4.4-15.4-18.7-18.1-24.7-7.9-17.9-9-22.7-9-40.1l.1-12.1,2.3,2.8c2,2.5,2.4,4.4,2.9,13.4ZM80.34,638.47c0,1.3-.5,3-1,3.8-.7,1.1-1,.5-1-2.3,0-2,.5-3.7,1-3.7.6,0,1,1,1,2.2ZM258.74,650.77c14,17.3,34.3,46.5,32.3,46.5-.2,0-1.8-2.3-3.6-5.1-1.7-2.8-3.4-4.9-3.8-4.6-.3.3.2,2.7,1.1,5.3s1.4,4.9,1.2,5.1c-.2.3-1.4-2.6-2.6-6.4-3.5-10.6-5.5-13.9-9.7-16-3.1-1.5-5.9-5-15-18.8-15.1-22.7-15.1-24.7.1-6ZM186.84,645.27c.3.6-.1.7-.9.4-1.8-.7-2.1-1.4-.7-1.4.6,0,1.3.4,1.6,1ZM199.04,653.47c-.3.8-.6.5-.6-.6-.1-1.1.2-1.7.5-1.3.3.3.4,1.2.1,1.9ZM242.84,670.37c2.9,5.7,3.9,8.6,3,8.6-1.1,0-6.9-11.8-9.2-18.7-1-3.1,1.8,1.4,6.2,10.1ZM261.34,688.77c0,.5-.5.3-1-.5s-1-2-1-2.5c0-.6.5-.3,1,.5s1,1.9,1,2.5ZM275.44,690.77c-.7,2.1-1,2.4-1,1-.1-1.1-.4-3.1-.7-4.5-.6-2.3-.5-2.4.9-1,1.3,1.2,1.4,2.2.8,4.5ZM169.84,694.37c.6,2.7.8,2.8,1.9,1.4,1.1-1.6,1.3-1.6,2.6,0,1.1,1.4,1.2,2.7.2,7.4-1.6,7.5-1.5,9.1.3,9.1.9,0,2,1.2,2.5,2.6.6,1.4,1.4,2.3,2,1.9,1.3-.8,3-7.3,3-11.8,0-3.4.2-3.7,1.9-2.8,1.1.6,2.1,2.6,2.5,4.9.8,5.4,2.8,7,5.5,4.3s3.2-2.6,2.2,0c-.4,1.2-2.3,2.7-4.1,3.3-2.1.7-4.7,2.8-6.7,5.6-5.5,7.4-9.5,12.1-9.9,11.7-.2-.2.3-2,1.1-4s1.5-4.6,1.5-5.8c0-3-2.9-8.6-4.7-9.3-2-.8-5.3,2.1-5.3,4.5,0,3.6,1.1,4.9,3.7,4.3,2.3-.6,2.4-.5,1.4,1.3-1.6,3-4.2,3.7-4.8,1.3-.7-2.7-2.1-2.5-6.7,1-2.2,1.7-4.4,3-5,3s0-.9,1.3-1.9c1.4-1,2.6-2.6,2.7-3.5s2-3.8,4.1-6.3c2.1-2.6,4.6-5.8,5.5-7.2,2-2.9,2.4-9.1.7-9.1-1.6,0-12.6,11.4-14.4,15-1.4,2.8-2,3-6.9,3s-18-3.3-18.9-4.8c-.3-.4,2.4-.8,5.9-.9,7-.2,17.7-2.6,21-4.8,1.1-.7,4-5,6.3-9.4,4.4-8.5,6.4-9.6,7.6-4ZM276.04,696.47c-.3.8-.6.5-.6-.6-.1-1.1.2-1.7.5-1.3.3.3.4,1.2.1,1.9ZM300.04,701.47c-.3.8-.6.5-.6-.6-.1-1.1.2-1.7.5-1.3.3.3.4,1.2.1,1.9ZM204.34,714.77c0,1.6-2.6,5.5-3.7,5.5-1.5,0-1.6-.5-.7-4.8.6-2.7.9-3,2.5-2.1,1.1.5,1.9,1.2,1.9,1.4ZM208.64,725.57c-1.6,4.5-2.6,9.6-2.7,13.4,0,3.5-.2,6.3-.4,6.3-.1,0-2.5-1.1-5.2-2.5s-6.2-2.5-7.7-2.5c-2.6-.1-2.6-.2-1-1.4.9-.7,3.5-1.6,5.7-2,4.2-.7,7-3.5,7-7.2,0-1.2.6-2.4,1.4-2.7.7-.3,1.7-2.3,2.1-4.4.8-4.5,1.3-5.5,2.5-4.8.5.3-.3,3.8-1.7,7.8ZM199.84,729.77c-3.6,3-4.5,3.1-4.5.7,0-2.6.9-3.2,4.4-3.2l3.1.1-3,2.4ZM781.04,733.87c-.3.3-1.2.4-1.9.1-.8-.3-.5-.6.6-.6,1.1-.1,1.7.2,1.3.5ZM785.04,734.87c-.3.3-1.2.4-1.9.1-.8-.3-.5-.6.6-.6,1.1-.1,1.7.2,1.3.5ZM791.74,736.77c2,.8,3.6,1.7,3.6,2,0,.4-8-2.4-8.9-3.2-1.1-.8,2-.1,5.3,1.2ZM260.34,741.27c0,2.8-3.3,15.7-5.8,22.7-1.6,4.6-2.5,8.3-2,8.3s.6.6.3,1.2c-.4.7,1.3-.8,3.8-3.3,4.9-5,6.1-8.1,7.8-19.9.6-4.1,1.3-7.7,1.5-7.9s1.2.3,2.1,1.1c1,.8,2.6,1.8,3.6,2.1,1.1.4,1.7,1.7,1.7,3.9l-.1,3.3-2.2-2.8c-3-3.6-3.7-3.4-2.7.7.9,4.2-.7,9.2-5.3,16-1.9,2.8-4,6.1-4.6,7.4-1.2,2.3-.6,6.2,1.2,7.3.5.4.1,1.2-1.1,1.8-1.1.6-2.6,2.8-3.3,4.8-1.4,4.4-2.4,5.3-6.1,5.3s-3.5-1,1.6-5.3c5.2-4.3,5.1-5.7,0-12.6-3.3-4.3-3.3-4.4-1.8-8,4.6-10.7,5.4-13.4,8-25.8.3-1.5.9-2,1.9-1.7.8.4,1.5,1,1.5,1.4ZM802.94,743.37c.3.6-.5.3-2-.6-1.4-1-2.6-1.9-2.6-2.2,0-.7,3.9,1.7,4.6,2.8ZM674.34,751.77c4.7,4.7,8.2,8.5,8,8.5-.3,0-4.3-3.8-9-8.5s-8.2-8.5-8-8.5c.3,0,4.3,3.8,9,8.5ZM199.04,747.87c.4,1.3-4.2,6.4-5.7,6.4s-1.2-1.1,1-4.8c1.9-3.2,4-3.8,4.7-1.6ZM703.84,781.27c4.9,4.9,8.7,9,8.5,9-.3,0-4.6-4.1-9.5-9-4.9-5-8.7-9-8.5-9,.3,0,4.6,4,9.5,9ZM714.04,794.47c-.3.7-.5.2-.5-1.2s.2-1.9.5-1.3c.2.7.2,1.9,0,2.5ZM715.04,801.47c-.3.7-.5.2-.5-1.2s.2-1.9.5-1.3c.2.7.2,1.9,0,2.5Z"/>
      <path class="cls-1" d="M734.67,234.41c-3.6,1.5-3.9,2.2-1.9,4.7,1.6,2.2,4.8,2.3,9.2.2,3.2-1.5,4.5-3.4,2.4-3.4-.5,0-1-.7-1-1.5,0-1.9-4.3-1.9-8.7,0Z"/>
      <path class="cls-1" d="M505.27,322.31c-1.9,4.2-.4,7.3,3.8,8.1,2.9.5,4,.3,5-1.1.7-1,1.3-2.1,1.3-2.5,0-1.3-4.2-5.9-5-5.4-.5.3-1.1.1-1.5-.5-1-1.7-2.5-1.1-3.6,1.4Z"/>
      <path class="cls-1" d="M493.67,355.31c-5.1,4.7-5.1,5.9.2,7,2.3.5,3.6.2,5.3-1.4l2.2-2.1v4.6c0,4.5,1.2,6,2.4,2.9.9-2.4.7-7.2-.4-7.9-.6-.4-.6-1.5.1-3.2,1.3-3.4.4-4.1-2.2-1.7-2.1,1.9-2.2,1.9-1.5-.4,1.1-3.3-.7-2.7-6.1,2.2Z"/>
      <path class="cls-1" d="M627.87,353.51c-2.3,2.3-3.2,4.4-4.4,10.5-1.5,7.3-1.6,17.2-.2,17.7.6.2,1.1,1,1.1,1.8s.5,1.4,1.1,1.4c1.6,0,5.5-9.7,7.4-18.2,1.4-6.6,1.5-8.2.4-10.8-1.7-3.6-3.4-4.4-5.4-2.4Z"/>
      <path class="cls-1" d="M506.07,359.51c-1.1,1.1-.8,9.4.3,9.4,1.3,0,2.4-6.5,1.3-8.4-.5-.9-1.2-1.3-1.6-1Z"/>
      <path class="cls-1" d="M649.47,365.01c-4.7,5.2-6.1,5.9-6.1,3.1-.1-1.8-2.2-5.2-3.4-5.2-1,0-5.6,10.2-5.6,12.5.1,1.1,1.1,3.3,2.4,4.8,2.6,3.2,6.3,3.4,7.7.4.5-.9,1.3-2.5,1.7-3.4,1.6-3.3,3.1-2.6,2.5,1.2-.5,2.9-.1,4.1,1.7,6,2.7,2.8,5.5,3.2,6.4.9,1-2.7.7-22.4-.4-22.4-.5,0-1-.7-1-1.5,0-2.4-1.2-1.6-5.9,3.6ZM647.37,372.31c0,.3-.4.8-1,1.1-.5.3-1,.1-1-.4,0-.6.5-1.1,1-1.1.6,0,1,.2,1,.4Z"/>
      <path class="cls-1" d="M687.57,365.91c0,1.4.2,1.9.5,1.2.2-.6.2-1.8,0-2.5-.3-.6-.5-.1-.5,1.3Z"/>
      <path class="cls-1" d="M674.37,379.51c-.6,1.4-1,5-1,8.1s-.7,8-1.6,11.1c-2,6.7-1.4,22.5,1.1,33.2,1.7,7.1,5.5,14.4,8,15.4,2.1.8,3-1.8,1.7-5.2-2.4-6-3.2-15.8-3.2-38.2.1-15.5-.3-23.6-1-23.8-.5-.2-1-1-1-1.8,0-2.3-2-1.6-3,1.2Z"/>
      <path class="cls-1" d="M491.77,382.71c-5.5,4-14.2,13.8-14.6,16.4-.2,1.7-1.4,2.6-4.8,3.5-4.6,1.3-13.1,8.5-11.7,9.9,1.8,1.8,8.6.7,12.8-2.1,6.4-4.3,27.9-25.8,27.9-27.8,0-1.5-.4-1.6-2-.7s-2,.8-2-.5c0-2.2-1.2-1.9-5.6,1.3ZM481.37,400.91c0,.5-1,1.5-2.2,2.1q-2.3,1.2-.4-1c2.1-2.3,2.6-2.6,2.6-1.1Z"/>
      <path class="cls-1" d="M632.97,386.51c-1.5,4-.1,18.4,4.9,48.9,2.6,15.7,6.2,26.5,8.7,26.5,1.7,0,.2-17.8-2.7-31.5-1.9-9.1-2.5-15-2.5-24.5,0-10.2-.4-13.3-2-16.8-2-4.4-5.2-5.7-6.4-2.6Z"/>
      <path class="cls-1" d="M620.17,389.01c-2.4,1.3-2.3,6.7.1,9.8,2.1,2.7,3.5,2.3,5.7-2,1.4-2.8,1.3-3.2-.6-5.9-2.3-3.3-2.7-3.4-5.2-1.9Z"/>
      <path class="cls-1" d="M431.37,394.01c-6.7,2.7-11.2,5.5-13.8,8.8-5.1,6.4-26.1,19.7-44.2,28-5.9,2.7-12,7.5-10.9,8.5.2.2,2.3.7,4.5,1.1,3.7.6,4.6.3,7.8-2.5,2.1-1.9,4.2-3,5.1-2.6,2.1.8,8.3-1.8,18.5-7.7,13.8-8,23.1-13,23.5-12.5.9.9-10.5,9-18.9,13.3-14.7,7.7-18.6,10.4-18.6,13,0,4.9,11.2,2.9,18.4-3.4q1.8-1.5.8.4c-1.6,3,.2,5.2,4.9,6,4.4.8,7.9-1.2,7.9-4.5,0-2-6.7-4.4-9.6-3.4-3,.9,8.5-6.4,15.6-10,3.6-1.8,7.7-3.6,9.1-3.9,1.4-.4,3.1-1.8,3.7-3.2,1.2-2.7.7-7.4-.9-7.6-2-.3-2.4-.5-3.6-1.2-.7-.5-1.7-.5-2.3-.2-.5.3,1.5-2,4.6-5.2s6.2-7.1,7.1-8.7c1.4-2.8,1.4-2.9-.6-2.3-1.2.3-2.1.1-2.1-.4,0-1.2-2.8-1.1-6,.2Z"/>
      <path class="cls-1" d="M625.37,402.41c-1.3,1.5-.6,4.6,1.8,8.2,1.9,3,3,2.9,4.4-.2,2-4.4-3.4-11.4-6.2-8Z"/>
      <path class="cls-1" d="M346.17,407.01c-4.2,2.4-.1,6.2,8.1,7.5,3.2.5,4.6.3,6.1-1.1,2.8-2.5,1.1-5-4.4-6.4-5.4-1.3-7.6-1.4-9.8,0Z"/>
      <path class="cls-1" d="M616.97,417.01c-1.9,2.8-2.1,10.7-.2,13.1,1.8,2.4,2.2,2.3,3.5-1.3,1.5-4.2,1.3-8.8-.3-11.8l-1.3-2.4-1.7,2.4Z"/>
      <path class="cls-1" d="M627.07,420.61c-.4.3-.7,2.3-.7,4.3,0,3.9,4.1,9.7,6,8.5,1.7-1,1.1-6.8-1-10.3-2-3.2-3-3.8-4.3-2.5Z"/>
      <path class="cls-1" d="M450.07,428.61c-.9,1.1-1.7,2.9-1.7,4,0,1.6.9,2.2,4.1,2.7,4.8.8,8.9-1.3,8.9-4.4,0-2.3-.7-2.8-5.6-3.6-3.1-.5-4.3-.2-5.7,1.3Z"/>
      <path class="cls-1" d="M343.47,430.31c-2,2.4-.4,5.4,3.6,6.5,4.2,1.2,7.3,0,7.3-2.8,0-2.5-2.1-4.1-6.2-4.7-2.4-.4-3.8-.1-4.7,1Z"/>
      <path class="cls-1" d="M312.07,435.61c-2.4,2.4,3.2,4.3,15,5,9.5.6,14.1-.1,11.3-1.7-4.4-2.5-24.6-5-26.3-3.3Z"/>
      <path class="cls-1" d="M432.37,436.91c-1.9,1.9-2,2.4-.7,4.3,1.8,2.7,9.1,4.4,11.3,2.6,1.5-1.2,1.9-6.5.6-7.3-.5-.3-2.7-.8-4.9-1.2-3.4-.5-4.5-.2-6.3,1.6Z"/>
      <path class="cls-1" d="M617.57,439.91c-1.8,2.9-1.5,5.1,1.1,8.4,4.8,6,9,0,5.2-7.4-1.8-3.5-4.5-3.9-6.3-1Z"/>
      <path class="cls-1" d="M337.57,442.31c-2.9,1.4-5.5,3.3-5.9,4.2-1.9,5.1,6.3,7,13.1,3,5-3,9.1-7.2,7.8-8-.6-.3-3-.9-5.4-1.2-3.3-.4-5.5.1-9.6,2Z"/>
      <path class="cls-1" d="M305.57,443.01c-1.5,3.9,0,7.3,3.9,8.5,4.2,1.4,6.9.2,6.9-3,0-2.3-3-5.8-5.3-6.2-.7-.1-2-.5-2.9-.9-1.3-.5-2-.1-2.6,1.6Z"/>
      <path class="cls-1" d="M348.27,450.81c-3.5,2.8-1.3,4.5,5.9,4.6,4.5,0,5.7-.3,6-1.7.4-1.8-1.7-3.2-6.4-4.2-2.3-.5-3.7-.2-5.5,1.3Z"/>
      <path class="cls-1" d="M225.57,481.61c-.6.2-.9,1-.5,1.6.4.7.8,1.6.8,2.2,0,.5,1.9,1.1,4.3,1.3,2.5.2,4.2-.1,4.2-.7s-.6-1.1-1.2-1.1c-.9,0-.8-.4.2-1,1.3-.9,1.3-1.1,0-2-1.6-1-5.6-1.2-7.8-.3Z"/>
      <path class="cls-1" d="M661.07,482.61c-1.4,1.3-.6,4.7,1.8,8.9,3,5.1,6,7.1,8,5.4,1.9-1.6.3-5.7-4.1-10.9-3.6-4.1-4.5-4.7-5.7-3.4Z"/>
      <path class="cls-1" d="M89.67,483.61c.9.2,2.5.2,3.5,0,.9-.3.1-.5-1.8-.5s-2.7.2-1.7.5Z"/>
      <path class="cls-1" d="M184.87,514.01c-1.5,2.4.5,5.7,4.5,7.3s8.2,2.1,9.2,1.1c1.4-1.4-.8-5.9-3.6-7.6-3.4-2.1-9.1-2.5-10.1-.8Z"/>
      <path class="cls-1" d="M205.67,524.01c.2,3,6.6,8.3,26.7,22.2,9.6,6.7,22.4,15.6,28.4,19.9s11.2,7.5,11.7,7.2c1.4-.8,1.1-3-2-13.3-1.6-5.3-3.3-11.8-3.8-14.5-.9-5.8-2.9-7.5-7-6-4.4,1.5-4.3,5.5.1,8.9,3.7,2.8,4.6,4.5,2.4,4.5s-14.2-6.5-27.8-15.2c-14.8-9.4-23.3-14.2-26.7-15.2-1.8-.6-2.2-.3-2,1.5Z"/>
      <path class="cls-1" d="M188.07,527.11c.4.7.8,1.7.8,2.3,0,1.5,25,18.1,33.8,22.4q7.8,3.9,5.5,5.5c-3.4,2.4-5.8,2.1-5.8-.8,0-1.9-1.4-3.3-6.2-6.4-8.4-5.2-30-16.6-36.5-19.1l-5.2-2,.3,2.4c.3,3,3.4,5.5,19.1,15.6,15.2,9.7,32.5,22.3,41,30,15,13.5,40.2,36.8,41.8,38.7,1,1.1,2.6,3.4,3.5,5,1.7,3,9.8,12.2,10.7,12.2s.5-11.5-.5-15.1c-.7-2.6-1.7-3.9-3.5-4.3-1.3-.3-8.2-6.5-15.2-13.7-7-7.1-14.7-14.1-16.9-15.4-2.3-1.3-7.4-5.9-11.3-10.1-20.8-22.3-9.5-15.7,20.6,12,11.1,10.3,20.5,18.6,20.9,18.6,1.1,0-.2-14.8-1.5-16.3-.6-.8-2.2-1.2-3.5-1-1.7.4-2.7-.1-3.5-1.5-2.7-5-34-28.2-40.9-30.3-3.4-1-3.8-1.4-3.4-3.8.5-3.6-2.3-6-16.5-13.9-16.5-9.3-29.9-14.6-27.6-11Z"/>
      <path class="cls-1" d="M114.37,551.81c0,1,1.9,2.5,2.5,2,.1-.2-.3-1-1.1-1.7s-1.4-.8-1.4-.3Z"/>
      <path class="cls-1" d="M385.97,362.81c-1.9.7-1.9.8-.1,1.5,1.2.4,2.4.1,3.4-.9,1.3-1.3,1.3-1.5.1-1.4-.8,0-2.4.4-3.4.8Z"/>
      <path class="cls-1" d="M235.67,37.01c-6.1,3-5.4,4.2,2,3.7,7.1-.4,13.5-3.6,10.1-4.9-3.5-1.4-7.9-.9-12.1,1.2Z"/>
      <path class="cls-1" d="M760.87,127.91c.3.5,1.2,1,2,1s1.8.6,2.2,1.3c1.2,2,18,8.9,23,9.5,4.7.5,5.2-.2,2.5-3.5-2.3-2.8-7.3-4.8-17.4-6.8-4.6-.8-9.4-1.8-10.6-2.1-1.5-.3-2.1-.1-1.7.6Z"/>
      <path class="cls-1" d="M750.37,133.81c0,2.8-1.5,3.4-8.4,3.2-7.5-.1-9.7.9-7.1,3.5,1.4,1.4,7.6,2.6,27.4,5.5,14.1,2.1,28.9,4.1,32.9,4.4l7.2.7v-2.8c0-1.6-.9-4-1.9-5.3-1.6-2.1-2.2-2.3-4.8-1.3-6.8,2.3-40.1-4.5-42.8-8.8-1-1.7-2.5-1.1-2.5.9Z"/>
      <path class="cls-1" d="M714.67,135.71c-1.7,1.1.5,3.6,4.6,5,4.2,1.5,9.8,1.6,10.6.2.3-.6.1-1-.4-1-.6,0-1-.5-.8-1.1.5-2.4-11.1-5-14-3.1Z"/>
      <path class="cls-1" d="M805.57,144.21c-2.4,2.9-2.5,6.7-.1,9.3,1.2,1.3,2.9,2.4,3.7,2.4,1.8,0,15.7,5.9,30.4,12.9,5.8,2.8,11.6,5.1,12.9,5.1,2,0,2.1-.3,1.6-5-.3-2.7-1.2-6-1.8-7.2l-1.3-2.3-.6,2.5c-.4,1.7-1.4,2.6-3.1,2.8-3.5.4-15.8-6.1-27.8-14.7-10-7.2-12-8.1-13.9-5.8Z"/>
      <path class="cls-1" d="M800.87,157.91c1.1,1.2,8.2,5.3,15.8,9.1,7.5,3.8,15.5,8.5,17.6,10.4,2.2,2,6,4.3,8.5,5.1,3,1.1,4.6,2.2,4.6,3.3,0,2.7,2.8,5.9,8.4,9.5,2.9,1.9,7.3,5.8,9.7,8.7,7.6,9.1,10.8,12.1,12.6,11.7,2.3-.4,2.8-4,1.1-7.1-.7-1.4-5-5.2-9.4-8.5-4.5-3.3-8.5-6.5-8.9-7.2-.4-.6.1-2,1-3,1.6-1.8,1.6-2.1.1-4.4-1.9-2.9-13-9.1-31.1-17.4-14.8-6.7-24.7-10.7-29-11.8l-3-.7,2,2.3Z"/>
      <path class="cls-1" d="M763.07,191.41c-3.4,4.2-6.7,5.3-9.9,3.1-2.8-2-12.6-2.1-17.1-.2-1.8.7-4,2.2-4.9,3.3-1.7,1.8-1.7,2,.2,4.1,2.6,2.7,5.7,2.8,6.5.3,1.2-3.9,2.8-4.2,11.5-2,6.9,1.8,9,1.9,12.1,1,2-.6,4-1.8,4.3-2.6,1.5-4,17.7-.3,28.2,6.5,3.5,2.4,6.8,4,7.2,3.6,1.1-1.2-2.1-5.9-5.7-8.3-2.5-1.7-27.8-12.3-29.4-12.3-.1,0-1.5,1.6-3,3.5Z"/>
      <path class="cls-1" d="M766.27,241.31c2.7,2.9,12,7.1,13.1,5.9.4-.4.4-1.8,0-2.9-.9-2.3-8.3-5.4-12.9-5.4h-2.4l2.2,2.4Z"/>
      <path class="cls-1" d="M766.87,246.91c4.1,4.6,18.7,15.1,20.2,14.6,3.1-1.2-2.9-6.9-12.8-12-7-3.7-8.9-4.3-7.4-2.6Z"/>
      <path class="cls-1" d="M880.97,252.01c2.1,2.3,5.3,4.3,6,3.6,1-.9-3.9-5.7-5.8-5.7q-2.1,0-.2,2.1Z"/>
      <path class="cls-1" d="M837.37,260.41c0,1.6,7.6,9.5,9.1,9.5,2.1,0,.2-4.8-3.4-8.8-2.3-2.5-5.7-2.9-5.7-.7Z"/>
      <path class="cls-1" d="M825.47,271.01c1.2,2.4,5,9.2,8.5,15.1,9.7,16.4,16,29.5,23.6,49.3,10.3,26.5,11.9,31.2,12.3,35.6.5,5.3,3.3,14.6,4.6,15.5,1.4.8,2.5-.9,4-5.8,1-3.3.9-4.2-1.4-8.5-1.4-2.7-4.2-10.2-6.2-16.7s-4.5-13.2-5.6-15c-2.3-4-5.5-13.1-7.4-21.4-1.8-7.6-1.8-7.2-.2-7.2,1.8,0,5.4,7.8,13.8,29.6,3.9,10.4,7.7,19.7,8.5,20.8,1.1,1.7,1.4,1.5,3.4-2.4,1.8-3.6,2-4.6,1-7.1-.7-1.6-1.8-2.9-2.5-2.9s-1.6-1.2-2-2.8c-1-4-8.2-19.7-12.8-27.7-5.7-9.9-8.6-12.6-12.8-11.9-3.2.5-3.4.4-3.5-2.3-.1-1.9-2.6-6.7-6.7-12.9-13.1-19.5-24.1-32.1-18.6-21.3ZM856.87,309.91c.3.5.1,1-.4,1-.6,0-1.1-.5-1.1-1,0-.6.2-1,.4-1,.3,0,.8.4,1.1,1Z"/>
      <path class="cls-1" d="M835.37,269.31c-.1,2.4,15.9,28.7,20.3,33.3,2.7,2.9,5.7,4.3,5.7,2.8,0-4.4-25.8-40.3-26-36.1Z"/>
      <path class="cls-1" d="M850.87,276.61c.9,2.1,4.8,9.6,8.7,16.8,3.9,7.1,10.3,18.8,14.1,26,6.9,12.9,9.6,17,10.5,16,.3-.2,1-3.7,1.7-7.7s1.8-9.4,2.5-11.9c1.2-4.2,1.2-5-.3-7.3-1.1-1.6-2.7-2.6-4.2-2.6-2.8,0-3,.9-1.3,5.6.6,1.7.8,4,.4,5-.7,1.7-1.2,1.5-4.3-2.1-1.9-2.2-6.8-9.6-11-16.5-8.8-14.6-16-25-17.4-25-.5,0-.2,1.7.6,3.7Z"/>
      <path class="cls-1" d="M822.67,348.61c.4,3.2,2,11.4,3.6,18.3,4.6,19.6,5.4,27.3,4.8,46.4-.7,20.6-3.5,39.7-7.7,52.6-3.7,11.5-8,28.1-8,31,0,1.5.5,2,1.4,1.7,1-.4,1.3-.1.9.9-.3.7-.2,1.4.1,1.4,1.2,0,5.6-10.5,8.1-19.2,1.3-4.6,4.7-17.9,7.5-29.6,5.1-20.4,7.5-27,5.9-16-1.4,9.7-1,14.8,1.2,18.4,1.1,1.9,2.4,3.4,2.7,3.4.4,0,.7-3.9.7-8.7s.2-12.1.4-16.1c.3-6.4.1-7.8-1.8-10.3-2.3-3-3.9-13.2-5.5-33.9-.5-7-.4-7.3.9-4.4,2.9,6.3,10.5,48.9,10.5,58.6,0,3.2.6,5,2,6.3,2.7,2.4,3.3,1.6,3.7-5.3.5-7.8,1-9.8,2.9-11.6,1.4-1.4,1.4-1.6,0-1.6-1,0-1.3-.6-1-1.5.4-.9,0-1.5-1-1.5-1.6,0-2.1-1.5-3-9.3-.3-2.6-1.3-6.1-2.1-7.7-.9-1.7-2.2-8.2-3-14.5-.9-7.1-2.1-12.4-3.1-14.1-1.2-1.8-1.7-4.2-1.5-7.5.2-3.6-.3-5.8-1.9-8.4-3.1-5-4.3-3.5-3.4,4.2,1,9.7-.9,7.3-5.2-6.5-6.4-20.7-10.3-27.4-9.1-15.5Z"/>
      <path class="cls-1" d="M807.37,360.81c-2.6,5,.5,14.3,4.3,12.8,3.5-1.3,1.3-14.7-2.3-14.7-.5,0-1.4.9-2,1.9Z"/>
      <path class="cls-1" d="M834.07,461.41c-1.2,3.1-.7,6.2,1.3,8,4,3.6,4.9-2.4,1.1-7.4-1.6-2.1-1.9-2.1-2.4-.6Z"/>
      <path class="cls-1" d="M775.67,465.51c-3.7,5.3-5.4,6.6-7.8,6-3-.8-8.5,3.8-12.7,10.3-3.1,5-3.6,8.5-1.3,10.7,1.3,1.3,1.8,1,4.4-2.8,4.9-7,7.3-9.9,7.9-9.4.7.8-6.9,13.3-14.3,23.1-6,8.1-6.4,9-5.1,10.9,2.5,3.9,4.7,2.5,11.3-6.9,14.7-21.2,22.8-36.8,21.8-41.6-.8-3.6-1.9-3.7-4.2-.3Z"/>
      <path class="cls-1" d="M804.97,512.71c-1.3,2.4-1.2,3,.4,5,3.5,4.3,6.8-.6,4-5.9-1.5-2.6-2.7-2.4-4.4.9Z"/>
      <path class="cls-1" d="M787.87,530.61c-3.3.7-7.5,2.5-7.5,3.2,0,.3.7,1.4,1.5,2.5,1.7,2.2,5.1,1.7,8.6-1.5,1.8-1.6,2-1.9.6-1.5-1.5.5-1.7.2-1.2-1.4.4-1.1.5-1.9.3-1.9-.2.1-1.2.3-2.3.6Z"/>
      <path class="cls-1" d="M787.87,540.01c-1.9,3.5-1.3,4.8,1.1,2.8,1.6-1.3,1.6-1.2.4,1.1l-1.3,2.5,2.2-1.9c2.1-1.9,3-5.3,1-4-.8.4-.9,0-.4-1.5,1-3.2-1.2-2.5-3,1Z"/>
      <path class="cls-1" d="M769.37,552.31c-6.5,1.9-11.3,4.1-12.8,5.9-1,1.2-2.5,1.5-6.2,1-3-.3-6.1-.1-8,.7-2.9,1.2-4.1,3-1.9,3,.5,0,.8.4.5.9-2.5,4.1,18.6-.3,34-7,4.2-1.8,4.6-2.2,2.9-2.9-1.1-.5-1.4-.9-.7-.9.6-.1,1.2-.6,1.2-1.1,0-1.3-3.4-1.1-9,.4ZM758.37,560.81c0,.9-2.4,2.1-4.1,2.1-1.6,0-1-1.8.9-2.3,2.8-.8,3.2-.7,3.2.2Z"/>
      <path class="cls-1" d="M723.17,571.01c-2.2,1.3-2.3,2.3-.1,4.9,2.1,2.4,7.1,2.7,7.9.5.8-2-2.2-6.5-4.4-6.5-.9,0-2.5.5-3.4,1.1Z"/>
      <path class="cls-1" d="M13.87,592.21c-3.5,3.5-4.6,7.9-2.5,9.2,1.7,1,8-6,8-8.8,0-4-1.8-4.1-5.5-.4Z"/>
      <path class="cls-1" d="M22.97,594.61c-3.8,6.1-4.1,7-2.6,9.3.8,1.2,1.4,1,4-1.5,3.2-3.1,5.2-8.2,4.3-11.5-.8-3.1-1.9-2.4-5.7,3.7Z"/>
      <path class="cls-1" d="M700.87,590.91c-.8,1.3,1.3,6,2.7,6,.5,0,.6-.6.1-1.3-.4-.6-.9-2.1-1-3.1-.4-2.6-.9-3-1.8-1.6Z"/>
      <path class="cls-1" d="M46.07,601.51c-.4.4-.7,2.3-.7,4.3,0,4.9-1,6-6,7.5l-4.2,1.2,2.9,3.5c3.8,4.3,4,5,5.3,18.7,1,11.1,4.1,22.2,6.2,22.2.6,0,.7-2.1.2-6.3-1.1-9.3-.6-16.5,1.6-21.5,2.5-5.5,2.6-8.7.4-7.8-3.5,1.3-6.4,1.8-6.4,1,0-.5,1.2-4.8,2.6-9.6s2.4-9.8,2.2-11c-.3-2.3-2.7-3.5-4.1-2.2Z"/>
      <path class="cls-1" d="M37.57,603.11c-1.6,1.6-1.5,3.9.4,6.6,2.4,3.5,3.5,2.6,3.2-2.5-.3-4.8-1.5-6.2-3.6-4.1Z"/>
      <path class="cls-1" d="M7.97,606.01c-1.9,1.5-2.6,3-2.6,5.4,0,4.8,1.4,5.1,5.8,1,6.8-6.1,3.9-12-3.2-6.4Z"/>
      <path class="cls-1" d="M17.87,615.41c-1.3,3-1.7,6.6-1.7,15.3.1,14.6,1.6,17.5,3,6.1,1.9-14.9,2.1-18.3,1.3-21.9l-.8-3.5-1.8,4Z"/>
      <path class="cls-1" d="M26.67,616.11c-1.2,1.9-.7,15.8.6,17.1.6.6,1.1.8,1.1.5s.4-2.9,1-5.8c1-5.3.4-13-1.1-13-.4,0-1.1.6-1.6,1.2Z"/>
      <path class="cls-1" d="M5.57,625.71c-2.5,2.5-2.7,3.5-1.2,6.3,1.5,2.7,3.9,2.4,5-.7,1.3-3.3,1.3-3.7-.3-5.9-1.3-1.7-1.5-1.7-3.5.3Z"/>
      <path class="cls-1" d="M33.67,633.11c.3,3.5,1,7.6,1.7,9.3l1.2,3,1-2.5c1.7-4.5-.7-16-3.4-16-.7,0-.9,2-.5,6.2Z"/>
      <path class="cls-1" d="M54.77,633.61c-.8,8.1,1.2,40.6,2.7,43.5.6,1.1,2,7,3,13.2,2.5,14.1,3.4,16.6,6.5,16.6s3.1-2.4.5-11.1c-4.4-14.3-6.3-26.3-8.1-50.9-1-14.1-1.7-18-3-18-.5,0-1.2,3-1.6,6.7Z"/>
      <path class="cls-1" d="M61.97,635.11c.3,1.3,1.4,3.1,2.2,4.1,1.5,1.7,1.6,1.7,2.4-.4,1.3-3.3,0-5.9-2.8-5.9-2.2,0-2.4.3-1.8,2.2Z"/>
      <path class="cls-1" d="M12.27,651.51c-2.1,2.2-2.1,2.4-.4,1.8,1.8-.7,1.9-.6.5,1.1s-1.4,1.8.8.6c2.3-1.2,2.4-1.2,1.8,1.6-.4,1.6-.2,4.3.4,5.9,1.1,2.8,1.2,2.8,2.5,1,1.8-2.3,2.9-9.7,2-12.5-.9-2.9-4.6-2.7-7.6.5Z"/>
      <path class="cls-1" d="M26.67,654.61c-1,2.5-.9,11.2,0,14.8l.9,3,1.3-2.5c2.9-5.3,2.7-15.8-.3-16.8-.7-.2-1.5.5-1.9,1.5Z"/>
      <path class="cls-1" d="M42.17,656.71c-.7,2.6.3,8.3,1.3,7.6,1.2-.7,1.2-8.1,0-8.8-.5-.3-1.1.2-1.3,1.2Z"/>
      <path class="cls-1" d="M77.07,662.61c-1,1-.8,5.2.3,7.4.6,1,2,1.9,3,1.9,1.6,0,2-.7,2-3.3,0-4.1-3.4-7.9-5.3-6Z"/>
      <path class="cls-1" d="M68.07,664.51c-1.4,1.5-.8,8.4.9,9.1,1.7.6,3.4-1.2,3.4-3.8,0-2.2-3.3-6.3-4.3-5.3Z"/>
      <path class="cls-1" d="M35.97,665.81c-.6,1-.3,4.1,2.1,20.3.3,2.1.9,3.5,1.3,3.3,1.4-.8,2.1-12.9,1.1-17.4-1-4.8-3.4-8-4.5-6.2Z"/>
      <path class="cls-1" d="M48.97,666.51c-.4,1-1,6.2-1.3,11.4-.4,7.3-.2,10.4,1,13.2,1.9,4.5,3.4,4.8,4.3,1.1.7-2.7-1.2-22.1-2.6-25.7q-.7-1.9-1.4,0Z"/>
      <path class="cls-1" d="M26.07,674.51c-1.2,2.1,2.9,16.4,4.8,16.4.3,0,.5-2.7.5-5.9,0-4.8-.5-6.5-2.3-8.7-1.3-1.5-2.6-2.3-3-1.8Z"/>
      <path class="cls-1" d="M69.17,677.51c-.9.8,1.1,7.3,3.5,11.9l2.2,4,.3-2.9c.6-4.8-4.1-14.9-6-13Z"/>
      <path class="cls-1" d="M16.37,681.11c0,4.7,1.5,6.7,2.4,3.3.8-3,0-6.5-1.5-6.5-.5,0-.9,1.5-.9,3.2Z"/>
      <path class="cls-1" d="M50.37,700.81c-1.6,6.6-3.2,8-5.5,4.5-2.5-3.8-3.9-1.7-3,4.5.8,6,3.2,9.5,5.8,8.6,1.7-.7,2.2-2.2,1.8-6.2-.2-2.6,3.6-5.3,4.3-3.1.3.7.9,2.6,1.4,4.3,1.1,3.7,4.5,4.2,5,.7.4-2.4-5.2-15.5-7.3-17.2-1-.8-1.6.1-2.5,3.9Z"/>
      <path class="cls-1" d="M29.77,700.41c-1.6,4.1,2.3,19.3,6.2,24.1,1.4,1.7,1.5,1.3,1-6.1-.8-12.5-5.2-23.3-7.2-18Z"/>
      <path class="cls-1" d="M74.37,702.41c0,1.6,1.1,5.2,2.5,8,1.3,2.7,2.5,5.8,2.5,6.7.1,6,10.2,24,17.1,30.5,7.3,6.9,8.9,3.1,2-5-4.7-5.7-7.1-10.1-15.9-28.7-2.8-5.8-5.7-11.4-6.6-12.5q-1.5-1.9-1.6,1Z"/>
      <path class="cls-1" d="M67.77,713.51c.9,6.6,7.5,21.1,15.2,33.4,10.5,16.7,12.8,22,9.5,22-2.5,0-22.8-32-26.1-41.3-2.7-7.2-5.1-10.3-7.5-9.3-1.3.5-1.5,1.3-1.1,3.4,1.1,4.5,9.1,20.2,14.4,28.3,2.7,4.2,5.3,8.7,5.7,10s3.4,5.2,6.6,8.6c3.3,3.4,5.9,6.5,5.9,6.9s-.7,1.5-1.5,2.4c-1.2,1.3-1.3,2.3-.6,4.3,1.1,2.8,5.7,6.4,6.8,5.3.4-.4.8-3.6.9-7.2.2-3.6.5-6.8.7-7.1.8-.7,4.6,1.6,12.2,7.4,11.6,8.9,26.8,15.4,29.6,12.6.5-.5,0-2.5-1.2-4.8-1.2-2.2-1.5-3.4-.8-2.8.7.7,2.8,1.3,4.5,1.3,2,0,4.4,1,6.2,2.5,3.4,2.9,14.8,6.1,18.4,5.2,2.8-.7,3.4-4.3,1-5.6-.9-.5-4.4-1.2-7.7-1.6-4-.5-5.4-1-4.1-1.5,2.7-.9,2.9-3.9.3-4.4-1.2-.3-5.8-.7-10.2-1-7.6-.6-10.7-1.7-9.1-3.3.4-.5,2.8-.7,5.2-.6,4.1.1,4.5-.1,4.2-2-.4-2.7-4.2-4.7-9.3-4.7-3.1,0-4.4.6-6,2.6-2.6,3.3-3.5,3-14-3.6-5.5-3.5-9-5-11.4-5-4.5,0-9.8-4.1-12-9.4-1-2.2-4.1-7.6-6.9-11.8-2.7-4.3-6.2-11-7.8-15-3.7-10.1-8.2-18.8-9.6-18.8-.7,0-.9,1.5-.4,4.6ZM131.37,784.51c0,2.8-3.1,2.7-6-.1-1.6-1.5-3.3-2.4-3.9-2.1-1.6,1-6.4-1.9-10.4-6.3-2-2.3-3.7-4.3-3.7-4.6s5.4,2.2,12,5.5c7,3.6,12,6.8,12,7.6Z"/>
      <path class="cls-1" d="M45.97,721.81c-1.8,2.9,6.5,16.9,24.2,40.7,10.8,14.7,13.4,16.9,10.8,9.4-1.5-4.3-7.3-13.2-13.9-21.5-2.7-3.3-6.8-9.9-9.2-14.6-5.9-11.6-10.2-16.7-11.9-14Z"/>
      <path class="cls-1" d="M565.97,724.81c-.3.4.7,1.4,2.2,2q2.7,1.3.8-.8c-2.2-2.4-2.3-2.4-3-1.2Z"/>
      <path class="cls-1" d="M36.87,730.81c-.8,2.5,2.3,8.7,3.7,7.3,1.6-1.6.5-8.6-1.4-9-.9-.2-1.9.5-2.3,1.7Z"/>
      <path class="cls-1" d="M45.97,737.71c-.7,1.2,2.6,7.3,3.8,6.9,1.6-.5,2-4.6.6-6.3-1.4-1.5-3.6-1.9-4.4-.6Z"/>
      <path class="cls-1" d="M233.77,751.41c-.8,2-1.9,7-2.4,11.2-.6,4.3-1.8,8.9-3,10.8-3.1,5-2.2,15.3,1.6,19.4,1.1,1.2,1.6,1.2,2.8.1,2.4-1.9,2-6.6-.6-8.4-2.1-1.5-2.1-1.8-.9-4.8,5.5-13.2,8-24.1,6.7-29.3-.9-3.5-2.4-3.1-4.2,1Z"/>
      <path class="cls-1" d="M54.37,751.91c0,3,2.8,8,4.5,8,2.2,0,1.9-4.3-.6-7.4s-3.9-3.3-3.9-.6Z"/>
      <path class="cls-1" d="M45.37,754.11c.1,1.8.9,4.9,2,6.8l1.9,3.5.1-3c0-4-1.9-10.5-3-10.5-.6,0-1,1.5-1,3.2Z"/>
      <path class="cls-1" d="M108.37,756.31c0,5,.9,6.6,3.8,6.6,1.4,0,3.7,1.1,5.1,2.4,1.5,1.3,3.8,3.1,5.4,4.1q2.7,1.7,2.7-.8c0-1.6-1.4-3.8-4.2-6.3-5-4.6-11.2-9.4-12.1-9.4-.4,0-.7,1.5-.7,3.4Z"/>
      <path class="cls-1" d="M216.27,758.01c-.9,2-2,4.7-2.4,6-1.3,4.2-3.6,6-7.5,5.9-5.6-.3-5.8-.2-6.5,3.2-.5,2.3-3,5.5-8.1,10.3-5.2,5-7.3,7.7-7.1,9.3.2,2.7.9,2.7,6.4,0,4.2-2.1,4.6-2.1,5.8-.5.7.9,1.6,1.7,2,1.7,1.9,0,6.9-4.8,11.1-10.5,5.9-8.3,8.6-16,8.2-23.4l-.3-5.6-1.6,3.6ZM203.37,783.91c-1.2,1.7-2.4,2.9-2.7,2.6s.5-1.9,1.7-3.6,2.4-2.9,2.7-2.6-.5,1.9-1.7,3.6Z"/>
      <path class="cls-1" d="M285.97,763.01c-2.5,2.1-3.5,3.8-3.4,5.5.5,5.2,7.5.6,8.2-5.4.4-4-.4-4-4.8-.1Z"/>
      <path class="cls-1" d="M62.07,762.51c-1,1,1.1,6.2,4.1,10.6,3.3,4.7,9.9,11.2,17.5,17.2,2.6,2,4.7,4.2,4.7,4.7,0,1.5-5.7-1.8-14.9-8.9-6.8-5.2-8.7-6.2-8.9-4.8-.6,3,2.4,6.2,17.9,18.6,15.3,12.3,19.7,15,24.3,15,1.4,0,4.1,1.3,5.9,3,4,3.5,7.2,3.9,7.4,1,.2-2.5-3.6-5.6-15-12.4-11.6-6.8-14.5-9.7-6.6-6.6,11,4.4,23.8,13,29.1,19.7.9,1.2,3.5,2.7,5.7,3.4,5,1.5,8.7.2,10.1-3.6.9-2.3,1.4-2.5,6-2.3,2.7.2,5,.4,5,.5s-1.5,1-3.2,2c-2.7,1.4-3,1.8-1.4,2.1,1.5.3,1.6.6.5,1.3-.9.7.6.8,4.3.3,5.4-.6,12.8.8,12.8,2.5,0,.4.9,1.7,2,2.9,2.7,2.9,5.2,1.6,8-3.8,2.6-5.1,2.5-8.2-.2-10.6l-2.1-1.9.6,3.1c.4,2.3.1,3.6-1.2,4.8-2.5,2.3-3.3,2.1-8.6-2.3-7.1-5.8-15.5-8.6-35.7-11.6-5.6-.9-11.6-2.4-13.3-3.4-28.2-16.9-35.4-22.2-44-32.4-4.7-5.6-9.6-9.3-10.8-8.1ZM135.37,813.91c4.4,2.2,4.9,3,2.3,3-1.7,0-8.6-4.9-7-5,.4,0,2.6.9,4.7,2Z"/>
      <path class="cls-1" d="M292.07,767.31c-.8,2,.3,8.6,1.4,8.6.5,0,.9-2.3.9-5,0-4.8-1.2-6.6-2.3-3.6Z"/>
      <path class="cls-1" d="M54.67,768.51c-.3.8-.1,2.9.4,4.7,1.2,4.2,4.6,4.5,5.1.5.6-5.1-3.9-9.4-5.5-5.2Z"/>
      <path class="cls-1" d="M239.57,771.11c-1.7,1.7-1.6,7.8.1,7.8,2.2,0,4.7-3.4,4.7-6.3s-2.6-3.7-4.8-1.5Z"/>
      <path class="cls-1" d="M150.77,774.61c1.2,4.9,6.6,7.3,6.6,3,0-2.7-2.8-5.7-5.4-5.7-1.5,0-1.7.5-1.2,2.7Z"/>
      <path class="cls-1" d="M189.77,774.11c-13.8,10.3-15.8,18.3-2.7,10.8,6-3.4,8.3-6.3,8.3-10.2,0-3.4-1.7-3.6-5.6-.6Z"/>
      <path class="cls-1" d="M282.57,787.91c-6.6,5.2-10.4,10.3-10.6,14.2-.1,1.8-.8,3.4-1.6,3.6-1.3.5-1.3.3-.1-1.1,1.2-1.5,1.1-1.7-.4-1.7-2.2,0-8.1,2.8-9.6,4.6-.6.8-1.3,2.6-1.5,4-.2,2.1.1,2.4,1.9,1.8,3.9-1.2,11.1-7.1,19.9-16.2,6.8-7,8.5-9.5,8.1-11.1-.3-1.2-.7-2.1-.8-2.1-.2,0-2.6,1.8-5.3,4Z"/>
      <path class="cls-1" d="M103.37,786.81c0,2.8,4.7,7.3,7.2,6.9,3.6-.5,3.3-4.5-.5-6.8-4.1-2.5-6.7-2.6-6.7-.1Z"/>
      <path class="cls-1" d="M118.07,794.61c-.3.5-.1,1.8.3,3,.9,2.3,9.7,6.1,16.1,7,3.3.5,3.6.3,3.5-1.8-.2-4-9.5-8.9-16.8-8.9-1.5,0-2.9.3-3.1.7Z"/>
      <path class="cls-1" d="M229.67,798.01c-3.5,1.6-6.7,3.9-7.3,4.9-2.1,3.8-26.1,19.7-34.1,22.5-7.3,2.6-11.9,6.1-11.7,9,.3,3.2,1.9,3.2,5.6,0,1.7-1.4,4.2-2.5,5.6-2.5,3.1,0,7.7-2.2,19.3-9.1,4.5-2.7,10.1-5.8,12.5-6.9,5.9-2.6,17.8-14.9,17.8-18.4,0-1.4-.3-2.6-.7-2.6-.5,0-3.6,1.4-7,3.1Z"/>
      <path class="cls-1" d="M154.17,796.91c-3.7.5-7.6,1.1-8.7,1.5-4.6,1.4-1,8.5,4.2,8.5,6.3,0,27.7-6.3,26.3-7.8-.3-.3-.1-1.1.5-1.9.9-1.1-.3-1.3-7.2-1.2-4.6.1-11.4.5-15.1.9Z"/>
      <path class="cls-1" d="M70.37,799.41c0,2.9,9.9,12.3,16.5,15.7,4.3,2.2,6.6,4,7,5.6.5,2,1,2.2,3.9,1.6,2.7-.4,3.9-.1,5.4,1.4,4.8,4.8,9,4.7,7.8-.1-.4-1.9-2.7-3.6-9.5-7.1-4.9-2.5-11.5-6.5-14.7-9-3.3-2.4-8.3-5.5-11.1-7-4.4-2.2-5.3-2.4-5.3-1.1Z"/>
      <path class="cls-1" d="M160.77,808.31c-1.5,3.8,4.9,8.2,8.5,5.9,2.1-1.3,2.6-4,1.1-5.8-1.6-2-8.9-2-9.6-.1Z"/>
      <path class="cls-1" d="M224.37,815.21c-3.4,3-11,8-17,11.2-12.3,6.4-14.2,8.1-13.3,11.3.9,3.6,1.5,3.3,20.5-8.7,3.8-2.4,9.4-5.4,12.5-6.7l5.8-2.3v-4.7c0-2.6-.5-4.9-1.1-5.1-.7-.2-4,2-7.4,5Z"/>
      <path class="cls-1" d="M114.87,824.91c-1.2,1.9,2.4,5.9,6.2,6.9,5.1,1.5,6.3,1.4,6.3-.5,0-3-2.1-5.3-5.8-6.4-4.7-1.3-5.9-1.3-6.7,0Z"/>
      <path class="cls-1" d="M248.97,825.41c-1.8,1.8-1.9,2.5-1,4.9.8,2,4.8,2.1,6.4.2,3.2-4-1.7-8.7-5.4-5.1Z"/>
      <path class="cls-1" d="M158.97,827.41c-.8,2.1,1.1,6.5,2.8,6.5,2.2,0,3.9-2.8,3.2-5.5-.7-2.9-5-3.6-6-1Z"/>
      <path class="cls-1" d="M235.67,831.11c-2.5,1.2-2.9,3.8-1.3,6.9,2.7,4.9,8.6-.4,6.2-5.6-1.3-2.8-1.7-2.9-4.9-1.3Z"/>
      <path class="cls-1" d="M132.97,831.81c-.3.4,0,1.6.7,2.6,1.1,1.3,3.2,1.8,10.3,2.1,4.9.2,8.1.1,7.1-.2-1.7-.5-1.8-.6-.1-1.9,1.5-1.1.9-1.4-4.8-2.4-7.7-1.3-12.5-1.4-13.2-.2Z"/>
      <path class="cls-1" d="M210.37,833.41c-1,1.2-1,2.1-.2,4,2.1,4.5,7.7,2.3,7-2.7-.4-2.8-4.8-3.7-6.8-1.3Z"/>
      <path class="cls-1" d="M156.77,836.21c-6,2.3-7.8,4.1-7,7,1.1,4.4,5.6,3.4,12.2-2.5,1.4-1.2,2-2.7,1.7-3.9-.6-2.1-2.4-2.3-6.9-.6Z"/>
      <path class="cls-1" d="M127.77,837.41c-.9,2.2.5,8.3,1.9,8.8,3.3,1.2,5-3.1,2.7-7.2-1.3-2.5-3.9-3.4-4.6-1.6Z"/>
      <path class="cls-1" d="M163.67,843.61c-.7.2-1.3,1.5-1.3,2.8,0,1.8.7,2.5,3,3,3.5.8,5,0,5-2.4,0-3.2-3.2-4.9-6.7-3.4Z"/>
    </g>
  </g>
</svg>